<?xml version="1.0" encoding="UTF-8" standalone="no"?>
<!-- Created with Inkscape (http://www.inkscape.org/) -->

<svg
   width="40"
   height="240"
   viewBox="0 0 40 240"
   version="1.1"
   id="svg479"
   inkscape:version="1.2.1 (9c6d41e410, 2022-07-14)"
   sodipodi:docname="flags.svg"
   xmlns:inkscape="http://www.inkscape.org/namespaces/inkscape"
   xmlns:sodipodi="http://sodipodi.sourceforge.net/DTD/sodipodi-0.dtd"
   xmlns="http://www.w3.org/2000/svg"
   xmlns:svg="http://www.w3.org/2000/svg">
  <sodipodi:namedview
     id="namedview481"
     pagecolor="#ffffff"
     bordercolor="#666666"
     borderopacity="1.0"
     inkscape:showpageshadow="2"
     inkscape:pageopacity="0"
     inkscape:pagecheckerboard="true"
     inkscape:deskcolor="#d1d1d1"
     inkscape:document-units="px"
     showgrid="false"
     inkscape:zoom="3.3638608"
     inkscape:cx="89.480515"
     inkscape:cy="158.8948"
     inkscape:window-width="1276"
     inkscape:window-height="1390"
     inkscape:window-x="0"
     inkscape:window-y="0"
     inkscape:window-maximized="1"
     inkscape:current-layer="g1207" />
  <defs
     id="defs476">
    <inkscape:path-effect
       effect="spiro"
       id="path-effect1707"
       is_visible="true"
       lpeversion="0" />
    <inkscape:path-effect
       effect="spiro"
       id="path-effect1715"
       is_visible="true"
       lpeversion="0" />
    <inkscape:path-effect
       effect="spiro"
       id="path-effect1719"
       is_visible="true"
       lpeversion="0" />
    <inkscape:path-effect
       effect="spiro"
       id="path-effect1723"
       is_visible="true"
       lpeversion="0" />
    <marker
       inkscape:isstock="true"
       style="overflow:visible"
       id="marker1246"
       refX="0"
       refY="0"
       orient="auto"
       inkscape:stockid="Arrow2Send">
      <path
         transform="matrix(-0.3,0,0,-0.3,0.69,0)"
         d="M 8.7185878,4.0337352 -2.2072895,0.01601326 8.7185884,-4.0017078 c -1.7454984,2.3720609 -1.7354408,5.6174519 -6e-7,8.035443 z"
         style="fill:#000000;fill-opacity:1;fill-rule:evenodd;stroke:#000000;stroke-width:0.625;stroke-linejoin:round;stroke-opacity:1"
         id="path1244" />
    </marker>
    <marker
       inkscape:isstock="true"
       style="overflow:visible"
       id="marker1450"
       refX="0"
       refY="0"
       orient="auto"
       inkscape:stockid="Arrow2Sstart">
      <path
         transform="matrix(0.3,0,0,0.3,-0.69,0)"
         d="M 8.7185878,4.0337352 -2.2072895,0.01601326 8.7185884,-4.0017078 c -1.7454984,2.3720609 -1.7354408,5.6174519 -6e-7,8.035443 z"
         style="fill:#000000;fill-opacity:1;fill-rule:evenodd;stroke:#000000;stroke-width:0.625;stroke-linejoin:round;stroke-opacity:1"
         id="path1448" />
    </marker>
    <marker
       inkscape:isstock="true"
       style="overflow:visible"
       id="marker1246-3"
       refX="0"
       refY="0"
       orient="auto"
       inkscape:stockid="Arrow2Send">
      <path
         transform="matrix(-0.3,0,0,-0.3,0.69,0)"
         d="M 8.7185878,4.0337352 -2.2072895,0.01601326 8.7185884,-4.0017078 c -1.7454984,2.3720609 -1.7354408,5.6174519 -6e-7,8.035443 z"
         style="fill:#000000;fill-opacity:1;fill-rule:evenodd;stroke:#000000;stroke-width:0.625;stroke-linejoin:round;stroke-opacity:1"
         id="path1244-6" />
    </marker>
    <marker
       inkscape:isstock="true"
       style="overflow:visible"
       id="marker1450-7"
       refX="0"
       refY="0"
       orient="auto"
       inkscape:stockid="Arrow2Sstart">
      <path
         transform="matrix(0.3,0,0,0.3,-0.69,0)"
         d="M 8.7185878,4.0337352 -2.2072895,0.01601326 8.7185884,-4.0017078 c -1.7454984,2.3720609 -1.7354408,5.6174519 -6e-7,8.035443 z"
         style="fill:#000000;fill-opacity:1;fill-rule:evenodd;stroke:#000000;stroke-width:0.625;stroke-linejoin:round;stroke-opacity:1"
         id="path1448-5" />
    </marker>
  </defs>
  <g
     inkscape:label="Layer 1"
     inkscape:groupmode="layer"
     id="layer1">
    <g
       id="g3394"
       transform="translate(-40)">
      <path
         style="fill:none;stroke:#000000;stroke-width:3;stroke-linecap:round;stroke-linejoin:miter;stroke-miterlimit:4;stroke-dasharray:none;stroke-opacity:1"
         d="m 52.343058,29.64701 h 14.5664"
         id="path185"
         sodipodi:nodetypes="cc" />
      <path
         style="fill:#f9ffff;fill-opacity:1;stroke:#000000;stroke-width:2;stroke-linecap:butt;stroke-linejoin:miter;stroke-miterlimit:4;stroke-dasharray:none;stroke-opacity:1"
         d="m 50.970267,11.703662 c 0,0 13.57645,-6.2225404 16.546299,0.7071 2.969848,6.929649 7.919596,10.889449 1.979899,10.182339 -5.939697,-0.70711 -10.323759,-1.414215 -12.692567,0.494973 0,0 0.106066,-5.51543 -5.833631,-11.384412 z"
         id="path187"
         sodipodi:nodetypes="csscc" />
      <path
         style="fill:none;stroke:#000000;stroke-width:2.5;stroke-linecap:butt;stroke-linejoin:miter;stroke-miterlimit:4;stroke-dasharray:none;stroke-opacity:1"
         d="m 49.521739,10.841526 c 0,0 8.307463,6.165433 7.246803,19.034776"
         id="path1150"
         sodipodi:nodetypes="cc" />
    </g>
    <g
       id="g15774"
       transform="translate(-40)">
      <path
         style="fill:#ffd700;fill-opacity:1;stroke:none;stroke-width:1px;stroke-linecap:butt;stroke-linejoin:miter;stroke-opacity:1"
         d="m 54.4,136.7 c 0,0 3.15,-2.2 7,-1.75 3.85,0.45 7.8,0.55 7.8,0.55 0,0 3.35,6.1 3.2,6.6 -0.15,0.5 -2.3,0.8 -5.85,0.3 -3.55,-0.5 -6.55,-1.05 -8.25,-0.25 -1.7,0.8 -1.9,0.25 -1.9,0.25 z"
         id="path3651"
         sodipodi:nodetypes="cscssscc" />
      <path
         style="fill:#0057b7;fill-opacity:1;stroke:none;stroke-width:1px;stroke-linecap:butt;stroke-linejoin:miter;stroke-opacity:1"
         d="m 54.4,136.85 -3.7,-5 c 0,0 8.05,-3.3 11.2,-2.6 3.15,0.7 4.35,0.95 5.25,2.6 0.9,1.65 2.15,4.8 2.15,4.8 0,0 -4.1,-1.5 -8.6,-1.05 -2.340453,0.23405 -6.3,1.25 -6.3,1.25 z"
         id="path3949"
         sodipodi:nodetypes="ccsscsc" />
      <g
         id="g3402"
         transform="translate(0,120)">
        <path
           style="fill:none;stroke:#000000;stroke-width:3;stroke-linecap:round;stroke-linejoin:miter;stroke-miterlimit:4;stroke-dasharray:none;stroke-opacity:1"
           d="m 52.343058,29.64701 h 14.5664"
           id="path3396"
           sodipodi:nodetypes="cc" />
        <path
           style="fill:none;fill-opacity:1;stroke:#000000;stroke-width:2;stroke-linecap:butt;stroke-linejoin:miter;stroke-miterlimit:4;stroke-dasharray:none;stroke-opacity:1"
           d="m 50.970267,11.703662 c 0,0 13.57645,-6.2225404 16.546299,0.7071 2.969848,6.929649 7.919596,10.889449 1.979899,10.182339 -5.939697,-0.70711 -10.323759,-1.414215 -12.692567,0.494973 0,0 0.106066,-5.51543 -5.833631,-11.384412 z"
           id="path3398"
           sodipodi:nodetypes="csscc" />
        <path
           style="fill:none;stroke:#000000;stroke-width:2.5;stroke-linecap:butt;stroke-linejoin:miter;stroke-miterlimit:4;stroke-dasharray:none;stroke-opacity:1"
           d="m 49.521739,10.841526 c 0,0 8.307463,6.165433 7.246803,19.034776"
           id="path3400"
           sodipodi:nodetypes="cc" />
      </g>
    </g>
    <g
       id="g3556"
       transform="translate(-160,80)">
      <path
         style="fill:none;stroke:#5bcefa;stroke-width:3;stroke-linecap:round;stroke-linejoin:miter;stroke-miterlimit:4;stroke-dasharray:none;stroke-opacity:1"
         d="m 172.77416,133.30056 c 0,0 5.99775,-2.76994 9.85304,-2.12739 2.33346,0.38891 4.06587,1.09602 4.06587,1.09602"
         id="path7626-5"
         sodipodi:nodetypes="csc" />
      <path
         style="fill:none;stroke:#f5a9b8;stroke-width:3;stroke-linecap:round;stroke-linejoin:miter;stroke-miterlimit:4;stroke-dasharray:none;stroke-opacity:1"
         d="m 174.44118,135.2201 c 0,0 5.16032,-2.02141 9.01561,-1.37886 2.33346,0.38891 4.17194,1.30815 4.17194,1.30815"
         id="path8523-5"
         sodipodi:nodetypes="csc" />
      <path
         style="fill:none;stroke:#ffffff;stroke-width:3;stroke-linecap:round;stroke-linejoin:miter;stroke-miterlimit:4;stroke-dasharray:none;stroke-opacity:1"
         d="m 175.06116,137.16287 c 0,0 3.82717,-1.70928 8.9199,-1.24351 2.35581,0.21546 4.95154,1.24351 4.95154,1.24351"
         id="path9126-8"
         sodipodi:nodetypes="csc" />
      <path
         style="fill:none;stroke:#f5a9b8;stroke-width:3;stroke-linecap:round;stroke-linejoin:miter;stroke-miterlimit:4;stroke-dasharray:none;stroke-opacity:1"
         d="m 175.94504,139.05209 c 0,0 4.10394,-1.51357 8.91383,-0.83567 2.3425,0.33015 4.63941,0.78137 4.63941,0.78137"
         id="path9679-1"
         sodipodi:nodetypes="csc" />
      <path
         style="fill:none;stroke:#5bcefa;stroke-width:3;stroke-linecap:round;stroke-linejoin:miter;stroke-miterlimit:4;stroke-dasharray:none;stroke-opacity:1"
         d="m 176.68145,141.13451 c -0.22311,0.33467 2.88145,-1.6573 9.07774,-0.67354 2.39164,0.37971 5.11439,0.76317 5.11439,0.76317"
         id="path10707-0"
         sodipodi:nodetypes="csc" />
      <g
         id="g5146"
         transform="translate(120,120)">
        <path
           style="fill:none;stroke:#000000;stroke-width:3;stroke-linecap:round;stroke-linejoin:miter;stroke-miterlimit:4;stroke-dasharray:none;stroke-opacity:1"
           d="m 52.343058,29.64701 h 14.5664"
           id="path5140"
           sodipodi:nodetypes="cc" />
        <path
           style="fill:none;fill-opacity:1;stroke:#000000;stroke-width:2;stroke-linecap:butt;stroke-linejoin:miter;stroke-miterlimit:4;stroke-dasharray:none;stroke-opacity:1"
           d="m 50.970267,11.703662 c 0,0 13.57645,-6.2225404 16.546299,0.7071 2.969848,6.929649 7.919596,10.889449 1.979899,10.182339 -5.939697,-0.70711 -10.323759,-1.414215 -12.692567,0.494973 0,0 0.106066,-5.51543 -5.833631,-11.384412 z"
           id="path5142"
           sodipodi:nodetypes="csscc" />
        <path
           style="fill:none;stroke:#000000;stroke-width:2.5;stroke-linecap:butt;stroke-linejoin:miter;stroke-miterlimit:4;stroke-dasharray:none;stroke-opacity:1"
           d="m 49.521739,10.841526 c 0,0 8.307463,6.165433 7.246803,19.034776"
           id="path5144"
           sodipodi:nodetypes="cc" />
      </g>
    </g>
    <g
       id="g15766"
       transform="translate(-120,40)">
      <path
         style="fill:none;stroke:#e40303;stroke-width:3;stroke-linecap:round;stroke-linejoin:miter;stroke-miterlimit:4;stroke-dasharray:none;stroke-opacity:1"
         d="m 132.22897,132.90072 c 0,0 6.39775,-2.86994 10.25304,-2.22739 2.33346,0.38891 4.06587,1.09602 4.06587,1.09602"
         id="path7626"
         sodipodi:nodetypes="csc" />
      <path
         style="fill:none;stroke:#ff8c00;stroke-width:3;stroke-linecap:round;stroke-linejoin:miter;stroke-miterlimit:4;stroke-dasharray:none;stroke-opacity:1"
         d="m 134.42099,134.84526 c 0,0 5.16032,-2.02141 9.01561,-1.37886 2.33346,0.38891 4.17194,1.30815 4.17194,1.30815"
         id="path8523"
         sodipodi:nodetypes="csc" />
      <path
         style="fill:none;stroke:#ffed00;stroke-width:3;stroke-linecap:round;stroke-linejoin:miter;stroke-miterlimit:4;stroke-dasharray:none;stroke-opacity:1"
         d="m 134.91597,136.54232 c 0,0 5.08961,-1.98606 8.9449,-1.34351 2.33346,0.38891 4.94976,1.30815 4.94976,1.30815"
         id="path9126"
         sodipodi:nodetypes="csc" />
      <path
         style="fill:none;stroke:#008026;stroke-width:3;stroke-linecap:round;stroke-linejoin:miter;stroke-miterlimit:4;stroke-dasharray:none;stroke-opacity:1"
         d="m 135.79985,138.02725 c 0,0 4.98354,-1.70322 8.83883,-1.06067 2.33346,0.38891 4.91441,1.13137 4.91441,1.13137"
         id="path9679"
         sodipodi:nodetypes="csc" />
      <path
         style="fill:none;stroke:#004dff;stroke-width:3;stroke-linecap:round;stroke-linejoin:miter;stroke-miterlimit:4;stroke-dasharray:none;stroke-opacity:1"
         d="m 136.29483,139.75967 c 0,0 4.45321,-1.70323 9.08632,-0.8839 2.3295,0.41195 5.19724,0.84853 5.19724,0.84853"
         id="path10707"
         sodipodi:nodetypes="csc" />
      <path
         style="fill:none;stroke:#75078a;stroke-width:3;stroke-linecap:round;stroke-linejoin:miter;stroke-miterlimit:4;stroke-dasharray:none;stroke-opacity:1"
         d="m 136.54232,141.52743 c 0,0 4.22444,-1.54408 8.16707,-0.84856 3.62799,0.64002 6.47004,0.84854 6.47004,0.84854"
         id="path11089"
         sodipodi:nodetypes="csc" />
      <g
         id="g5154"
         transform="translate(80,120)">
        <path
           style="fill:none;stroke:#000000;stroke-width:3;stroke-linecap:round;stroke-linejoin:miter;stroke-miterlimit:4;stroke-dasharray:none;stroke-opacity:1"
           d="m 52.343058,29.64701 h 14.5664"
           id="path5148"
           sodipodi:nodetypes="cc" />
        <path
           style="fill:none;fill-opacity:1;stroke:#000000;stroke-width:2;stroke-linecap:butt;stroke-linejoin:miter;stroke-miterlimit:4;stroke-dasharray:none;stroke-opacity:1"
           d="m 50.970267,11.703662 c 0,0 13.57645,-6.2225404 16.546299,0.7071 2.969848,6.929649 7.919596,10.889449 1.979899,10.182339 -5.939697,-0.70711 -10.323759,-1.414215 -12.692567,0.494973 0,0 0.106066,-5.51543 -5.833631,-11.384412 z"
           id="path5150"
           sodipodi:nodetypes="csscc" />
        <path
           style="fill:none;stroke:#000000;stroke-width:2.5;stroke-linecap:butt;stroke-linejoin:miter;stroke-miterlimit:4;stroke-dasharray:none;stroke-opacity:1"
           d="m 49.521739,10.841526 c 0,0 8.307463,6.165433 7.246803,19.034776"
           id="path5152"
           sodipodi:nodetypes="cc" />
      </g>
    </g>
    <g
       id="g20824"
       transform="translate(-40,40)">
      <path
         style="fill:none;stroke:#000000;stroke-width:3;stroke-linecap:round;stroke-linejoin:miter;stroke-miterlimit:4;stroke-dasharray:none;stroke-opacity:1"
         d="m 52.343058,29.64701 h 14.5664"
         id="path20818"
         sodipodi:nodetypes="cc" />
      <path
         style="fill:#000000;fill-opacity:1;stroke:#000000;stroke-width:2;stroke-linecap:butt;stroke-linejoin:miter;stroke-miterlimit:4;stroke-dasharray:none;stroke-opacity:1"
         d="m 50.970267,11.703662 c 0,0 13.57645,-6.2225404 16.546299,0.7071 2.969848,6.929649 7.919596,10.889449 1.979899,10.182339 -5.939697,-0.70711 -10.323759,-1.414215 -12.692567,0.494973 0,0 0.106066,-5.51543 -5.833631,-11.384412 z"
         id="path20820"
         sodipodi:nodetypes="csscc" />
      <path
         style="fill:none;stroke:#000000;stroke-width:2.5;stroke-linecap:butt;stroke-linejoin:miter;stroke-miterlimit:4;stroke-dasharray:none;stroke-opacity:1"
         d="m 49.521739,10.841526 c 0,0 8.307463,6.165433 7.246803,19.034776"
         id="path20822"
         sodipodi:nodetypes="cc" />
    </g>
    <g
       id="g3564"
       transform="translate(-40,80)">
      <path
         style="fill:none;stroke:#000000;stroke-width:3;stroke-linecap:round;stroke-linejoin:miter;stroke-miterlimit:4;stroke-dasharray:none;stroke-opacity:1"
         d="m 52.343058,29.64701 h 14.5664"
         id="path3558"
         sodipodi:nodetypes="cc" />
      <path
         style="fill:#000000;fill-opacity:1;stroke:#000000;stroke-width:2;stroke-linecap:butt;stroke-linejoin:miter;stroke-miterlimit:4;stroke-dasharray:none;stroke-opacity:1"
         d="m 50.970267,11.703662 c 0,0 13.57645,-6.2225404 16.546299,0.7071 2.969848,6.929649 7.919596,10.889449 1.979899,10.182339 -5.939697,-0.70711 -10.323759,-1.414215 -12.692567,0.494973 0,0 0.106066,-5.51543 -5.833631,-11.384412 z"
         id="path3560"
         sodipodi:nodetypes="csscc" />
      <path
         style="fill:none;stroke:#000000;stroke-width:2.5;stroke-linecap:butt;stroke-linejoin:miter;stroke-miterlimit:4;stroke-dasharray:none;stroke-opacity:1"
         d="m 49.521739,10.841526 c 0,0 8.307463,6.165433 7.246803,19.034776"
         id="path3562"
         sodipodi:nodetypes="cc" />
    </g>
    <g
       id="g1207"
       transform="matrix(0.8046024,0,0,0.8046024,94.347859,95.574722)">
      <g
         id="path898"
         style="fill:#ffffff"
         transform="matrix(0.51264753,-0.03969842,0.27480743,0.46717466,-83.768266,-5.3725967)">
        <path
           style="color:#000000;fill:#ffffff;-inkscape-stroke:none"
           d="m -10.560547,11.216797 -16.08789,6.86914 0.634765,1.486329 16.0878907,-6.869141 z"
           id="path3727" />
        <g
           id="g3709"
           style="fill:#ffffff">
          <g
             id="path3719"
             style="fill:#ffffff">
            <path
               style="color:#000000;fill:#ffffff;fill-rule:evenodd;stroke-width:0.302756;stroke-linejoin:round;-inkscape-stroke:none"
               d="m -6.6167727,12.536309 -5.6317223,0.288356 4.1032671,-3.8681576 c -0.3264225,1.3887756 0.2953777,2.8326886 1.5284552,3.5798016 z"
               id="path3723" />
            <path
               style="color:#000000;fill:#ffffff;fill-rule:evenodd;stroke-linejoin:round;-inkscape-stroke:none"
               d="M -8.1308594,8.8066406 A 0.15139314,0.15139314 0 0 0 -8.25,8.8457031 l -4.101563,3.8691409 a 0.15139314,0.15139314 0 0 0 0.111329,0.261719 L -6.609375,12.6875 a 0.15139314,0.15139314 0 0 0 0.070312,-0.28125 C -7.7174988,11.692244 -8.3093243,10.314575 -7.9980469,8.9902344 A 0.15139314,0.15139314 0 0 0 -8.1308594,8.8066406 Z m -0.1308594,0.46875 c -0.1492888,1.2162904 0.3485573,2.3780584 1.3339844,3.1250004 l -4.9160156,0.251953 z"
               id="path3725" />
          </g>
          <g
             id="path3711"
             style="fill:#ffffff">
            <path
               style="color:#000000;fill:#ffffff;fill-rule:evenodd;stroke-width:0.302756;stroke-linejoin:round;-inkscape-stroke:none"
               d="m -29.95788,18.25291 5.631722,-0.288356 -4.103267,3.868158 c 0.326422,-1.388776 -0.295378,-2.832689 -1.528455,-3.579802 z"
               id="path3715" />
            <path
               style="color:#000000;fill:#ffffff;fill-rule:evenodd;stroke-linejoin:round;-inkscape-stroke:none"
               d="m -24.333984,17.8125 -5.63086,0.289062 a 0.15139314,0.15139314 0 0 0 -0.07227,0.28125 c 1.178435,0.714007 1.772214,2.091675 1.460937,3.416016 a 0.15139314,0.15139314 0 0 0 0.25,0.144531 l 4.103516,-3.86914 A 0.15139314,0.15139314 0 0 0 -24.333984,17.8125 Z m -0.396485,0.324219 -3.582031,3.378906 c 0.150161,-1.217335 -0.349392,-2.379652 -1.335937,-3.126953 z"
               id="path3717" />
          </g>
        </g>
      </g>
      <g
         id="path900"
         style="fill:#ffffff"
         transform="matrix(0.51264753,-0.03969842,0.27480743,0.46717466,-83.768266,-5.3725967)">
        <path
           style="color:#000000;fill:#ffffff;-inkscape-stroke:none"
           d="m -25.042969,10.707031 -0.767578,1.421875 15.724609,8.494141 0.7675786,-1.419922 z"
           id="path3749" />
        <g
           id="g3731"
           style="fill:#ffffff">
          <g
             id="path3741"
             style="fill:#ffffff">
            <path
               style="color:#000000;fill:#ffffff;fill-rule:evenodd;stroke-width:0.302756;stroke-linejoin:round;-inkscape-stroke:none"
               d="m -7.8944332,23.110584 -3.7314928,-4.227931 5.5815946,0.803274 c -1.2900706,0.60907 -2.0330114,1.994552 -1.8501018,3.424657 z"
               id="path3745" />
            <path
               style="color:#000000;fill:#ffffff;fill-rule:evenodd;stroke-linejoin:round;-inkscape-stroke:none"
               d="m -11.603516,18.732422 a 0.15139314,0.15139314 0 0 0 -0.136718,0.25 l 3.7324215,4.228515 a 0.15139314,0.15139314 0 0 0 0.2636719,-0.11914 c -0.1748044,-1.366733 0.533457,-2.688721 1.7636719,-3.269531 a 0.15139314,0.15139314 0 0 0 -0.042969,-0.28711 z m 0.365235,0.359375 4.8730466,0.701172 c -1.045713,0.640443 -1.6446035,1.753207 -1.6152343,2.990234 z"
               id="path3747" />
          </g>
          <g
             id="path3733"
             style="fill:#ffffff">
            <path
               style="color:#000000;fill:#ffffff;fill-rule:evenodd;stroke-width:0.302756;stroke-linejoin:round;-inkscape-stroke:none"
               d="m -27.234144,8.2209295 3.731493,4.2279315 -5.581595,-0.803274 c 1.290071,-0.60907 2.033012,-1.9945517 1.850102,-3.4246575 z"
               id="path3737" />
            <path
               style="color:#000000;fill:#ffffff;fill-rule:evenodd;stroke-linejoin:round;-inkscape-stroke:none"
               d="m -27.296875,8.0839844 a 0.15139314,0.15139314 0 0 0 -0.08789,0.15625 c 0.174805,1.3667337 -0.533456,2.6867676 -1.763671,3.2675786 a 0.15139314,0.15139314 0 0 0 0.04297,0.287109 l 5.582032,0.804687 a 0.15139314,0.15139314 0 0 0 0.134765,-0.25 l -3.732422,-4.2285152 a 0.15139314,0.15139314 0 0 0 -0.175781,-0.037109 z m 0.148438,0.4628906 3.261718,3.693359 -4.876953,-0.701171 c 1.045832,-0.640418 1.644606,-1.7550829 1.615235,-2.992188 z"
               id="path3739" />
          </g>
        </g>
      </g>
      <path
         style="fill:#ffffff;fill-opacity:1;stroke:none;stroke-width:0;stroke-linecap:butt;stroke-linejoin:miter;stroke-miterlimit:4;stroke-dasharray:none;stroke-opacity:1"
         d="m -89.906821,-0.01380546 c 0,0 -6.242579,-1.96732904 -5.35221,-4.60130124 0.890368,-2.6339698 3.251054,-2.0238707 6.009295,-0.3410097 2.75824,1.6828612 -0.657085,4.94231094 -0.657085,4.94231094 z"
         id="path1704"
         inkscape:connector-curvature="0" />
    </g>
  </g>
</svg>
