<?xml version="1.0" encoding="UTF-8" standalone="no"?>
<svg
   width="320"
   height="320"
   viewBox="0 0 320.00001 320.00002"
   version="1.1"
   id="svg8"
   inkscape:version="1.1.2 (0a00cf5339, 2022-02-04)"
   sodipodi:docname="tiles2.svg"
   inkscape:export-filename="/home/iyes/dev/iyesgames/minewars/assets/tiles-5.png"
   inkscape:export-xdpi="19.200001"
   inkscape:export-ydpi="19.200001"
   xmlns:inkscape="http://www.inkscape.org/namespaces/inkscape"
   xmlns:sodipodi="http://sodipodi.sourceforge.net/DTD/sodipodi-0.dtd"
   xmlns="http://www.w3.org/2000/svg"
   xmlns:svg="http://www.w3.org/2000/svg"
   xmlns:rdf="http://www.w3.org/1999/02/22-rdf-syntax-ns#"
   xmlns:cc="http://creativecommons.org/ns#"
   xmlns:dc="http://purl.org/dc/elements/1.1/">
  <defs
     id="defs2">
    <inkscape:path-effect
       effect="spiro"
       id="path-effect1723"
       is_visible="true"
       lpeversion="0" />
    <inkscape:path-effect
       effect="spiro"
       id="path-effect1719"
       is_visible="true"
       lpeversion="0" />
    <inkscape:path-effect
       effect="spiro"
       id="path-effect1715"
       is_visible="true"
       lpeversion="0" />
    <inkscape:path-effect
       effect="spiro"
       id="path-effect1711"
       is_visible="true"
       lpeversion="0" />
    <inkscape:path-effect
       effect="spiro"
       id="path-effect1707"
       is_visible="true"
       lpeversion="0" />
    <inkscape:path-effect
       effect="spiro"
       id="path-effect1702"
       is_visible="true"
       lpeversion="0" />
    <marker
       inkscape:stockid="Arrow2Send"
       orient="auto"
       refY="0"
       refX="0"
       id="Arrow2Send"
       style="overflow:visible"
       inkscape:isstock="true"
       inkscape:collect="always">
      <path
         id="path935"
         style="fill:#000000;fill-opacity:1;fill-rule:evenodd;stroke:#000000;stroke-width:0.625;stroke-linejoin:round;stroke-opacity:1"
         d="M 8.7185878,4.0337352 -2.2072895,0.01601326 8.7185884,-4.0017078 c -1.7454984,2.3720609 -1.7354408,5.6174519 -6e-7,8.035443 z"
         transform="matrix(-0.3,0,0,-0.3,0.69,0)" />
    </marker>
    <marker
       inkscape:stockid="Arrow2Sstart"
       orient="auto"
       refY="0"
       refX="0"
       id="Arrow2Sstart"
       style="overflow:visible"
       inkscape:isstock="true"
       inkscape:collect="always">
      <path
         id="path932"
         style="fill:#000000;fill-opacity:1;fill-rule:evenodd;stroke:#000000;stroke-width:0.625;stroke-linejoin:round;stroke-opacity:1"
         d="M 8.7185878,4.0337352 -2.2072895,0.01601326 8.7185884,-4.0017078 c -1.7454984,2.3720609 -1.7354408,5.6174519 -6e-7,8.035443 z"
         transform="matrix(0.3,0,0,0.3,-0.69,0)" />
    </marker>
    <marker
       inkscape:isstock="true"
       style="overflow:visible"
       id="marker1246"
       refX="0"
       refY="0"
       orient="auto"
       inkscape:stockid="Arrow2Send">
      <path
         transform="matrix(-0.3,0,0,-0.3,0.69,0)"
         d="M 8.7185878,4.0337352 -2.2072895,0.01601326 8.7185884,-4.0017078 c -1.7454984,2.3720609 -1.7354408,5.6174519 -6e-7,8.035443 z"
         style="fill:#000000;fill-opacity:1;fill-rule:evenodd;stroke:#000000;stroke-width:0.625;stroke-linejoin:round;stroke-opacity:1"
         id="path1244" />
    </marker>
    <marker
       inkscape:isstock="true"
       style="overflow:visible"
       id="marker1450"
       refX="0"
       refY="0"
       orient="auto"
       inkscape:stockid="Arrow2Sstart">
      <path
         transform="matrix(0.3,0,0,0.3,-0.69,0)"
         d="M 8.7185878,4.0337352 -2.2072895,0.01601326 8.7185884,-4.0017078 c -1.7454984,2.3720609 -1.7354408,5.6174519 -6e-7,8.035443 z"
         style="fill:#000000;fill-opacity:1;fill-rule:evenodd;stroke:#000000;stroke-width:0.625;stroke-linejoin:round;stroke-opacity:1"
         id="path1448" />
    </marker>
    <inkscape:path-effect
       effect="spiro"
       id="path-effect4587"
       is_visible="true"
       lpeversion="0" />
    <clipPath
       clipPathUnits="userSpaceOnUse"
       id="clipPath14018">
      <path
         sodipodi:type="star"
         style="fill:#cccccc;fill-opacity:1;stroke:none;stroke-width:4.21728"
         id="path14020"
         sodipodi:sides="6"
         sodipodi:cx="19.999508"
         sodipodi:cy="260"
         sodipodi:r1="17.565153"
         sodipodi:r2="15.211868"
         sodipodi:arg1="-1.5707963"
         sodipodi:arg2="-1.0471976"
         inkscape:flatsided="true"
         inkscape:rounded="0.125"
         inkscape:randomized="0"
         d="m 19.999508,242.43485 c 2.195645,0 14.114047,6.88109 15.211869,8.78257 1.097822,1.90149 1.097822,15.66367 -10e-7,17.56516 -1.097822,1.90148 -13.016224,8.78257 -15.211869,8.78257 -2.195644,0 -14.1140461,-6.88109 -15.2118682,-8.78257 -1.097822,-1.90149 -1.0978216,-15.66367 5e-7,-17.56516 1.0978221,-1.90148 13.0162247,-8.78257 15.2118687,-8.78257 z" />
    </clipPath>
    <clipPath
       clipPathUnits="userSpaceOnUse"
       id="clipPath14022">
      <path
         sodipodi:type="star"
         style="fill:#cccccc;fill-opacity:1;stroke:none;stroke-width:4.21728"
         id="path14024"
         sodipodi:sides="6"
         sodipodi:cx="59.999508"
         sodipodi:cy="260"
         sodipodi:r1="17.565153"
         sodipodi:r2="15.211868"
         sodipodi:arg1="-1.5707963"
         sodipodi:arg2="-1.0471976"
         inkscape:flatsided="true"
         inkscape:rounded="0.125"
         inkscape:randomized="0"
         d="m 59.999508,242.43485 c 2.195645,0 14.114047,6.88109 15.211869,8.78257 1.097822,1.90149 1.097822,15.66367 -10e-7,17.56516 -1.097822,1.90148 -13.016224,8.78257 -15.211869,8.78257 -2.195644,0 -14.114046,-6.88109 -15.211868,-8.78257 -1.097822,-1.90149 -1.097822,-15.66367 0,-17.56516 1.097822,-1.90148 13.016225,-8.78257 15.211869,-8.78257 z" />
    </clipPath>
    <clipPath
       clipPathUnits="userSpaceOnUse"
       id="clipPath14026">
      <path
         sodipodi:type="star"
         style="fill:#cccccc;fill-opacity:1;stroke:none;stroke-width:4.21728"
         id="path14028"
         sodipodi:sides="6"
         sodipodi:cx="99.999512"
         sodipodi:cy="260"
         sodipodi:r1="17.565153"
         sodipodi:r2="15.211868"
         sodipodi:arg1="-1.5707963"
         sodipodi:arg2="-1.0471976"
         inkscape:flatsided="true"
         inkscape:rounded="0.125"
         inkscape:randomized="0"
         d="m 99.999512,242.43485 c 2.195648,0 14.114048,6.88109 15.211868,8.78257 1.09782,1.90149 1.09782,15.66367 0,17.56516 -1.09782,1.90148 -13.01622,8.78257 -15.211869,8.78257 -2.195644,0 -14.114046,-6.88109 -15.211868,-8.78257 -1.097822,-1.90149 -1.097822,-15.66367 0,-17.56516 1.097822,-1.90148 13.016225,-8.78257 15.211869,-8.78257 z" />
    </clipPath>
    <clipPath
       clipPathUnits="userSpaceOnUse"
       id="clipPath14030">
      <path
         sodipodi:type="star"
         style="fill:#cccccc;fill-opacity:1;stroke:none;stroke-width:4.21728"
         id="path14032"
         sodipodi:sides="6"
         sodipodi:cx="139.99951"
         sodipodi:cy="260"
         sodipodi:r1="17.565153"
         sodipodi:r2="15.211868"
         sodipodi:arg1="-1.5707963"
         sodipodi:arg2="-1.0471976"
         inkscape:flatsided="true"
         inkscape:rounded="0.125"
         inkscape:randomized="0"
         d="m 139.99951,242.43485 c 2.19565,0 14.11405,6.88109 15.21187,8.78257 1.09782,1.90149 1.09782,15.66367 0,17.56516 -1.09782,1.90148 -13.01622,8.78257 -15.21187,8.78257 -2.19564,0 -14.11405,-6.88109 -15.21187,-8.78257 -1.09782,-1.90149 -1.09782,-15.66367 0,-17.56516 1.09783,-1.90148 13.01623,-8.78257 15.21187,-8.78257 z" />
    </clipPath>
    <clipPath
       clipPathUnits="userSpaceOnUse"
       id="clipPath14034">
      <path
         sodipodi:type="star"
         style="fill:#cccccc;fill-opacity:1;stroke:none;stroke-width:4.21728"
         id="path14036"
         sodipodi:sides="6"
         sodipodi:cx="179.99951"
         sodipodi:cy="260"
         sodipodi:r1="17.565153"
         sodipodi:r2="15.211868"
         sodipodi:arg1="-1.5707963"
         sodipodi:arg2="-1.0471976"
         inkscape:flatsided="true"
         inkscape:rounded="0.125"
         inkscape:randomized="0"
         d="m 179.99951,242.43485 c 2.19565,0 14.11405,6.88109 15.21187,8.78257 1.09782,1.90149 1.09782,15.66367 0,17.56516 -1.09782,1.90148 -13.01622,8.78257 -15.21187,8.78257 -2.19564,0 -14.11405,-6.88109 -15.21187,-8.78257 -1.09782,-1.90149 -1.09782,-15.66367 0,-17.56516 1.09783,-1.90148 13.01623,-8.78257 15.21187,-8.78257 z" />
    </clipPath>
    <clipPath
       clipPathUnits="userSpaceOnUse"
       id="clipPath14038">
      <path
         sodipodi:type="star"
         style="fill:#cccccc;fill-opacity:1;stroke:none;stroke-width:4.21728"
         id="path14040"
         sodipodi:sides="6"
         sodipodi:cx="219.99951"
         sodipodi:cy="260"
         sodipodi:r1="17.565153"
         sodipodi:r2="15.211868"
         sodipodi:arg1="-1.5707963"
         sodipodi:arg2="-1.0471976"
         inkscape:flatsided="true"
         inkscape:rounded="0.125"
         inkscape:randomized="0"
         d="m 219.99951,242.43485 c 2.19565,0 14.11405,6.88109 15.21187,8.78257 1.09782,1.90149 1.09782,15.66367 0,17.56516 -1.09782,1.90148 -13.01622,8.78257 -15.21187,8.78257 -2.19564,0 -14.11405,-6.88109 -15.21187,-8.78257 -1.09782,-1.90149 -1.09782,-15.66367 0,-17.56516 1.09783,-1.90148 13.01623,-8.78257 15.21187,-8.78257 z" />
    </clipPath>
    <clipPath
       clipPathUnits="userSpaceOnUse"
       id="clipPath18557">
      <path
         sodipodi:type="star"
         style="fill:#cccccc;stroke:none"
         id="path18559"
         inkscape:flatsided="true"
         sodipodi:sides="4"
         sodipodi:cx="-144.95689"
         sodipodi:cy="86.267021"
         sodipodi:r1="19.726925"
         sodipodi:r2="13.949041"
         sodipodi:arg1="-0.78539816"
         sodipodi:arg2="0"
         inkscape:rounded="0.125"
         inkscape:randomized="0"
         d="m -131.00785,72.317979 c 2.46586,2.465865 2.46586,25.432219 0,27.898081 -2.46587,2.46587 -25.43222,2.46587 -27.89809,0 -2.46586,-2.465862 -2.46586,-25.432216 0,-27.898081 2.46587,-2.465866 25.43222,-2.465866 27.89809,0 z"
         transform="matrix(1.0549564,0,0,1.0549564,172.92287,208.99205)" />
    </clipPath>
    <clipPath
       clipPathUnits="userSpaceOnUse"
       id="clipPath18561">
      <path
         sodipodi:type="star"
         style="fill:#cccccc;stroke:none"
         id="path18563"
         inkscape:flatsided="true"
         sodipodi:sides="4"
         sodipodi:cx="-144.95689"
         sodipodi:cy="86.267021"
         sodipodi:r1="19.726925"
         sodipodi:r2="13.949041"
         sodipodi:arg1="-0.78539816"
         sodipodi:arg2="0"
         inkscape:rounded="0.125"
         inkscape:randomized="0"
         d="m -131.00785,72.317979 c 2.46586,2.465865 2.46586,25.432219 0,27.898081 -2.46587,2.46587 -25.43222,2.46587 -27.89809,0 -2.46586,-2.465862 -2.46586,-25.432216 0,-27.898081 2.46587,-2.465866 25.43222,-2.465866 27.89809,0 z"
         transform="matrix(1.0549564,0,0,1.0549564,212.92287,208.99205)" />
    </clipPath>
    <clipPath
       clipPathUnits="userSpaceOnUse"
       id="clipPath18565">
      <path
         sodipodi:type="star"
         style="fill:#cccccc;stroke:none"
         id="path18567"
         inkscape:flatsided="true"
         sodipodi:sides="4"
         sodipodi:cx="-144.95689"
         sodipodi:cy="86.267021"
         sodipodi:r1="19.726925"
         sodipodi:r2="13.949041"
         sodipodi:arg1="-0.78539816"
         sodipodi:arg2="0"
         inkscape:rounded="0.125"
         inkscape:randomized="0"
         d="m -131.00785,72.317979 c 2.46586,2.465865 2.46586,25.432219 0,27.898081 -2.46587,2.46587 -25.43222,2.46587 -27.89809,0 -2.46586,-2.465862 -2.46586,-25.432216 0,-27.898081 2.46587,-2.465866 25.43222,-2.465866 27.89809,0 z"
         transform="matrix(1.0549564,0,0,1.0549564,252.92287,208.99205)" />
    </clipPath>
    <clipPath
       clipPathUnits="userSpaceOnUse"
       id="clipPath18569">
      <path
         sodipodi:type="star"
         style="fill:#cccccc;stroke:none"
         id="path18571"
         inkscape:flatsided="true"
         sodipodi:sides="4"
         sodipodi:cx="-144.95689"
         sodipodi:cy="86.267021"
         sodipodi:r1="19.726925"
         sodipodi:r2="13.949041"
         sodipodi:arg1="-0.78539816"
         sodipodi:arg2="0"
         inkscape:rounded="0.125"
         inkscape:randomized="0"
         d="m -131.00785,72.317979 c 2.46586,2.465865 2.46586,25.432219 0,27.898081 -2.46587,2.46587 -25.43222,2.46587 -27.89809,0 -2.46586,-2.465862 -2.46586,-25.432216 0,-27.898081 2.46587,-2.465866 25.43222,-2.465866 27.89809,0 z"
         transform="matrix(1.0549564,0,0,1.0549564,292.92287,208.99205)" />
    </clipPath>
  </defs>
  <sodipodi:namedview
     id="base"
     pagecolor="#ffffff"
     bordercolor="#666666"
     borderopacity="1.0"
     inkscape:pageopacity="0.0"
     inkscape:pageshadow="2"
     inkscape:zoom="7.0710678"
     inkscape:cx="63.5689"
     inkscape:cy="71.205653"
     inkscape:document-units="px"
     inkscape:current-layer="layer1"
     inkscape:document-rotation="0"
     showgrid="false"
     showguides="false"
     inkscape:guide-bbox="true"
     units="px"
     inkscape:pagecheckerboard="true"
     inkscape:window-width="1276"
     inkscape:window-height="1390"
     inkscape:window-x="0"
     inkscape:window-y="0"
     inkscape:window-maximized="1"
     inkscape:object-nodes="false"
     inkscape:snap-nodes="false"
     inkscape:snap-others="false"
     inkscape:snap-global="false">
    <sodipodi:guide
       position="8.6494312,360.03586"
       orientation="0,-1"
       id="guide835" />
    <sodipodi:guide
       position="36.071429,319.82144"
       orientation="0,-1"
       id="guide841" />
    <sodipodi:guide
       position="84.821429,280.00001"
       orientation="0,-1"
       id="guide843" />
    <sodipodi:guide
       position="55,240.00001"
       orientation="0,-1"
       id="guide845" />
    <sodipodi:guide
       position="63.214286,200.00001"
       orientation="0,-1"
       id="guide847" />
    <sodipodi:guide
       position="56.071429,160.00001"
       orientation="0,-1"
       id="guide849" />
    <sodipodi:guide
       position="62.5,120.00001"
       orientation="0,-1"
       id="guide851" />
    <sodipodi:guide
       position="71.25,79.821432"
       orientation="0,-1"
       id="guide853" />
    <sodipodi:guide
       position="34.642858,387.67858"
       orientation="1,0"
       id="guide898" />
    <sodipodi:guide
       position="69.285715,63.571431"
       orientation="1,0"
       id="guide900" />
    <sodipodi:guide
       position="103.9447,177.96848"
       orientation="1,0"
       id="guide1409" />
    <sodipodi:guide
       position="138.50001,274.50001"
       orientation="1,0"
       id="guide2087" />
    <sodipodi:guide
       position="173.25001,296.81251"
       orientation="1,0"
       id="guide2089" />
  </sodipodi:namedview>
  <metadata
     id="metadata5">
    <rdf:RDF>
      <cc:Work
         rdf:about="">
        <dc:format>image/svg+xml</dc:format>
        <dc:type
           rdf:resource="http://purl.org/dc/dcmitype/StillImage" />
      </cc:Work>
    </rdf:RDF>
  </metadata>
  <g
     inkscape:label="Lag 1"
     inkscape:groupmode="layer"
     id="layer1">
    <path
       sodipodi:type="star"
       style="fill:#ffffff;stroke:none"
       id="path781"
       inkscape:flatsided="true"
       sodipodi:sides="4"
       sodipodi:cx="-144.95689"
       sodipodi:cy="86.267021"
       sodipodi:r1="19.726925"
       sodipodi:r2="13.949041"
       sodipodi:arg1="-0.78539816"
       sodipodi:arg2="0"
       inkscape:rounded="0.125"
       inkscape:randomized="0"
       d="m -131.00785,72.317979 c 2.46586,2.465865 2.46586,25.432219 0,27.898081 -2.46587,2.46587 -25.43222,2.46587 -27.89809,0 -2.46586,-2.465862 -2.46586,-25.432216 0,-27.898081 2.46587,-2.465866 25.43222,-2.465866 27.89809,0 z"
       transform="matrix(1.0549564,0,0,1.0549564,212.92287,-31.007949)" />
    <path
       sodipodi:type="star"
       style="fill:#ffffff;fill-opacity:1;stroke:none;stroke-width:4.21728"
       id="path837-3"
       sodipodi:sides="6"
       sodipodi:cx="59.999508"
       sodipodi:cy="20"
       sodipodi:r1="17.565153"
       sodipodi:r2="15.211868"
       sodipodi:arg1="-1.5707963"
       sodipodi:arg2="-1.0471976"
       inkscape:flatsided="true"
       inkscape:rounded="0.125"
       inkscape:randomized="0"
       d="m 59.999508,2.4348469 c 2.195645,0 14.114047,6.8810933 15.211869,8.7825771 1.097822,1.901483 1.097822,15.663669 -10e-7,17.565153 -1.097822,1.901484 -13.016224,8.782576 -15.211869,8.782576 -2.195644,0 -14.114046,-6.881093 -15.211868,-8.782577 -1.097822,-1.901483 -1.097822,-15.663669 0,-17.565153 1.097822,-1.9014835 13.016225,-8.7825762 15.211869,-8.7825761 z" />
    <g
       id="g1207"
       transform="matrix(0.8046024,0,0,0.8046024,33.91884,210.61849)">
      <path
         style="fill:none;stroke:#000000;stroke-width:1.6147;stroke-linecap:butt;stroke-linejoin:miter;stroke-miterlimit:4;stroke-dasharray:none;stroke-opacity:1;marker-start:url(#Arrow2Send);marker-end:url(#Arrow2Sstart)"
         d="m -26.331116,18.829038 16.087579,-6.868857"
         id="path898"
         inkscape:connector-curvature="0" />
      <path
         style="fill:none;stroke:#000000;stroke-width:1.6147;stroke-linecap:butt;stroke-linejoin:miter;stroke-miterlimit:4;stroke-dasharray:none;stroke-opacity:1;marker-start:url(#marker1246);marker-end:url(#marker1450)"
         d="m -25.427318,11.417916 15.7260587,8.495682"
         id="path900"
         inkscape:connector-curvature="0" />
      <path
         style="fill:#000000;fill-opacity:1;stroke:none;stroke-width:0;stroke-linecap:butt;stroke-linejoin:miter;stroke-miterlimit:4;stroke-dasharray:none;stroke-opacity:1"
         d="m -18.228967,10.875617 c 0,0 -8.338036,-5.5697957 -3.183613,-10.21130381 5.154423,-4.64150369 8.489642,-2.78490389 11.066855,1.19352411 2.5772098,3.9784282 -7.883242,9.0177797 -7.883242,9.0177797 z"
         id="path1704"
         inkscape:connector-curvature="0" />
    </g>
    <path
       style="fill:#eac200;fill-opacity:1;stroke:#cb0000;stroke-width:2.14903;stroke-linecap:butt;stroke-linejoin:miter;stroke-miterlimit:4;stroke-dasharray:none;stroke-opacity:1"
       d="m 180.7444,75.31096 c 0,0 -1.47403,-6.47281 5.10017,-9.45019 6.46968,-2.93004 10.0125,2.22043 10.0125,2.22043 0,0 -2.12092,-7.55866 -6.69344,-9.37221 -1.93386,-5.41427 6.34573,-11.16791 6.34573,-11.16791 0,0 -6.0484,5.55669 -12.50894,4.63635 -4.63572,-0.66041 -10.5137,-8.284 -10.5137,-8.284 0,0 6.61765,3.2975 1.08663,13.57937 -3.41215,6.34302 -9.51438,2.66572 -9.51438,2.66572 0,0 2.76422,3.63591 9.32484,7.30379 7.34083,4.10408 5.86058,11.24365 5.86058,11.24365 z"
       id="path1335"
       inkscape:connector-curvature="0"
       sodipodi:nodetypes="cscccscscccc" />
    <g
       id="g1375"
       style="opacity:0.333"
       transform="translate(42.679,80)">
      <rect
         style="fill:#000000;fill-opacity:1;stroke:none;stroke-width:1.87083;stroke-miterlimit:4;stroke-dasharray:none;stroke-opacity:1"
         id="rect1339"
         width="22.273863"
         height="1.9445437"
         x="4.5710001"
         y="11"
         rx="5.4116001" />
      <rect
         style="fill:#000000;fill-opacity:1;stroke:none;stroke-width:1.87083;stroke-miterlimit:4;stroke-dasharray:none;stroke-opacity:1"
         id="rect1341"
         width="22.273863"
         height="1.9445437"
         x="8.5710001"
         y="14.5"
         rx="5.4116001" />
      <rect
         style="fill:#000000;fill-opacity:1;stroke:none;stroke-width:1.87083;stroke-miterlimit:4;stroke-dasharray:none;stroke-opacity:1"
         id="rect1343"
         width="22.273863"
         height="1.9445437"
         x="4.0710001"
         y="24.5"
         rx="5.4116001" />
      <rect
         style="fill:#000000;fill-opacity:1;stroke:none;stroke-width:1.87083;stroke-miterlimit:4;stroke-dasharray:none;stroke-opacity:1"
         id="rect1345"
         width="22.273863"
         height="1.9445437"
         x="8.0710001"
         y="28.25"
         rx="5.4116001" />
      <rect
         style="fill:#000000;fill-opacity:1;stroke:none;stroke-width:1.87083;stroke-miterlimit:4;stroke-dasharray:none;stroke-opacity:1"
         id="rect1347"
         width="22.273863"
         height="1.9445437"
         x="3.0710001"
         y="17.5"
         rx="5.4116001" />
      <rect
         style="fill:#000000;fill-opacity:1;stroke:none;stroke-width:1.87083;stroke-miterlimit:4;stroke-dasharray:none;stroke-opacity:1"
         id="rect1349"
         width="22.273863"
         height="1.9445437"
         x="9.5710001"
         y="21"
         rx="5.4116001" />
    </g>
    <g
       id="g1426"
       transform="translate(82.4625,80.081742)">
      <path
         sodipodi:nodetypes="ccc"
         inkscape:connector-curvature="0"
         id="path878"
         d="m 21.071444,19.888636 4.078039,-4.344529 3.814533,13.031066"
         style="fill:none;fill-opacity:1;stroke:#000000;stroke-width:2.67744;stroke-linecap:butt;stroke-linejoin:miter;stroke-miterlimit:4;stroke-dasharray:none;stroke-opacity:1" />
      <path
         sodipodi:nodetypes="ccc"
         inkscape:connector-curvature="0"
         id="path880"
         d="M 9.628405,29.845332 18.465447,9.754254 23.156478,25.063836"
         style="fill:none;fill-opacity:1;stroke:#000000;stroke-width:2.67744;stroke-linecap:butt;stroke-linejoin:miter;stroke-miterlimit:4;stroke-dasharray:none;stroke-opacity:1" />
      <path
         sodipodi:nodetypes="ccc"
         inkscape:connector-curvature="0"
         id="path1419"
         d="M 15.91871,17.388636 10.965671,12.794107 5.7761378,25.450173"
         style="fill:none;fill-opacity:1;stroke:#000000;stroke-width:2.67744;stroke-linecap:butt;stroke-linejoin:miter;stroke-miterlimit:4;stroke-dasharray:none;stroke-opacity:1" />
    </g>
    <g
       id="g1499"
       transform="translate(162.679,80)"
       style="stroke-width:1;stroke-miterlimit:4;stroke-dasharray:none">
      <circle
         style="fill:#ff0017;fill-opacity:1;stroke:#060606;stroke-width:1;stroke-miterlimit:4;stroke-dasharray:none;stroke-opacity:1"
         id="circle4609"
         cx="19.786356"
         cy="24.990559"
         r="2.0122948" />
      <circle
         r="2.0122948"
         cy="23.229811"
         cx="12.994864"
         id="circle4611"
         style="fill:#ff0017;fill-opacity:1;stroke:#060606;stroke-width:1;stroke-miterlimit:4;stroke-dasharray:none;stroke-opacity:1" />
      <circle
         style="fill:#a00000;fill-opacity:1;stroke:#060606;stroke-width:1;stroke-miterlimit:4;stroke-dasharray:none;stroke-opacity:1"
         id="path838"
         cx="17.24914"
         cy="20.277134"
         r="6.6548328" />
      <circle
         style="fill:#ff0017;fill-opacity:1;stroke:#060606;stroke-width:1;stroke-miterlimit:4;stroke-dasharray:none;stroke-opacity:1"
         id="path840"
         cx="22.113068"
         cy="16.123917"
         r="2.0122948" />
      <circle
         r="2.0122948"
         cy="23.229811"
         cx="22.238832"
         id="circle842"
         style="fill:#ff0017;fill-opacity:1;stroke:#060606;stroke-width:1;stroke-miterlimit:4;stroke-dasharray:none;stroke-opacity:1" />
      <circle
         style="fill:#ff0017;fill-opacity:1;stroke:#060606;stroke-width:1;stroke-miterlimit:4;stroke-dasharray:none;stroke-opacity:1"
         id="circle844"
         cx="10.731027"
         cy="19.016598"
         r="2.0122948" />
      <circle
         r="2.0122948"
         cy="25.242104"
         cx="14.881392"
         id="circle846"
         style="fill:#ff0017;fill-opacity:1;stroke:#060606;stroke-width:1;stroke-miterlimit:4;stroke-dasharray:none;stroke-opacity:1" />
      <circle
         style="fill:#ff0017;fill-opacity:1;stroke:#060606;stroke-width:1;stroke-miterlimit:4;stroke-dasharray:none;stroke-opacity:1"
         id="circle848"
         cx="15.447341"
         cy="13.797207"
         r="2.0122948" />
      <circle
         style="fill:#ff0017;fill-opacity:1;stroke:#060606;stroke-width:1;stroke-miterlimit:4;stroke-dasharray:none;stroke-opacity:1"
         id="circle850"
         cx="16.830793"
         cy="19.519651"
         r="2.0122948" />
    </g>
    <g
       id="g1635"
       transform="translate(98.756,-200)"
       style="stroke-width:1;stroke-miterlimit:4;stroke-dasharray:none">
      <circle
         style="fill:#ffffff;fill-opacity:1;stroke:#000000;stroke-width:1;stroke-miterlimit:4;stroke-dasharray:none;stroke-opacity:1"
         id="circle1461"
         cx="123.70936"
         cy="224.99054"
         r="2.0122948" />
      <circle
         r="2.0122948"
         cy="223.22981"
         cx="116.91786"
         id="circle1463"
         style="fill:#ffffff;fill-opacity:1;stroke:#000000;stroke-width:1;stroke-miterlimit:4;stroke-dasharray:none;stroke-opacity:1" />
      <circle
         style="fill:#b0b0b0;fill-opacity:1;stroke:#000000;stroke-width:1;stroke-miterlimit:4;stroke-dasharray:none;stroke-opacity:1"
         id="circle1465"
         cx="121.17214"
         cy="220.27713"
         r="6.6548328" />
      <circle
         style="fill:#ffffff;fill-opacity:1;stroke:#000000;stroke-width:1;stroke-miterlimit:4;stroke-dasharray:none;stroke-opacity:1"
         id="circle1467"
         cx="126.03606"
         cy="216.12392"
         r="2.0122948" />
      <circle
         r="2.0122948"
         cy="223.22981"
         cx="126.16183"
         id="circle1469"
         style="fill:#ffffff;fill-opacity:1;stroke:#000000;stroke-width:1;stroke-miterlimit:4;stroke-dasharray:none;stroke-opacity:1" />
      <circle
         style="fill:#ffffff;fill-opacity:1;stroke:#000000;stroke-width:1;stroke-miterlimit:4;stroke-dasharray:none;stroke-opacity:1"
         id="circle1471"
         cx="114.65403"
         cy="219.0166"
         r="2.0122948" />
      <circle
         r="2.0122948"
         cy="225.2421"
         cx="118.80439"
         id="circle1473"
         style="fill:#ffffff;fill-opacity:1;stroke:#000000;stroke-width:1;stroke-miterlimit:4;stroke-dasharray:none;stroke-opacity:1" />
      <circle
         style="fill:#ffffff;fill-opacity:1;stroke:#000000;stroke-width:1;stroke-miterlimit:4;stroke-dasharray:none;stroke-opacity:1"
         id="circle1475"
         cx="119.37034"
         cy="213.79721"
         r="2.0122948" />
      <circle
         style="fill:#ffffff;fill-opacity:1;stroke:#000000;stroke-width:1;stroke-miterlimit:4;stroke-dasharray:none;stroke-opacity:1"
         id="circle1477"
         cx="120.75379"
         cy="219.51965"
         r="2.0122948" />
    </g>
    <g
       id="g1519"
       transform="matrix(0.35215156,0,0,0.35215156,118.09453,-26.17345)"
       style="stroke-width:2.83969;stroke-miterlimit:4;stroke-dasharray:none">
      <circle
         style="fill:#5f5f5f;fill-opacity:1;stroke:#060606;stroke-width:2.83969;stroke-miterlimit:4;stroke-dasharray:none;stroke-opacity:1"
         id="circle1501"
         cx="182.79295"
         cy="145.28975"
         r="5.7142859" />
      <circle
         r="5.7142859"
         cy="140.28978"
         cx="163.50725"
         id="circle1503"
         style="fill:#5f5f5f;fill-opacity:1;stroke:#060606;stroke-width:2.83969;stroke-miterlimit:4;stroke-dasharray:none;stroke-opacity:1" />
      <circle
         style="fill:#404040;fill-opacity:1;stroke:#060606;stroke-width:2.83969;stroke-miterlimit:4;stroke-dasharray:none;stroke-opacity:1"
         id="circle1505"
         cx="175.58806"
         cy="131.90511"
         r="18.897638" />
      <circle
         style="fill:#5f5f5f;fill-opacity:1;stroke:#060606;stroke-width:2.83969;stroke-miterlimit:4;stroke-dasharray:none;stroke-opacity:1"
         id="circle1507"
         cx="189.40009"
         cy="120.11127"
         r="5.7142859" />
      <circle
         r="5.7142859"
         cy="140.28978"
         cx="189.75722"
         id="circle1509"
         style="fill:#5f5f5f;fill-opacity:1;stroke:#060606;stroke-width:2.83969;stroke-miterlimit:4;stroke-dasharray:none;stroke-opacity:1" />
      <circle
         style="fill:#5f5f5f;fill-opacity:1;stroke:#060606;stroke-width:2.83969;stroke-miterlimit:4;stroke-dasharray:none;stroke-opacity:1"
         id="circle1511"
         cx="157.07866"
         cy="128.32558"
         r="5.7142859" />
      <circle
         r="5.7142859"
         cy="146.00406"
         cx="168.8644"
         id="circle1513"
         style="fill:#5f5f5f;fill-opacity:1;stroke:#060606;stroke-width:2.83969;stroke-miterlimit:4;stroke-dasharray:none;stroke-opacity:1" />
      <circle
         style="fill:#5f5f5f;fill-opacity:1;stroke:#060606;stroke-width:2.83969;stroke-miterlimit:4;stroke-dasharray:none;stroke-opacity:1"
         id="circle1515"
         cx="170.47151"
         cy="113.50414"
         r="5.7142859" />
      <circle
         style="fill:#5f5f5f;fill-opacity:1;stroke:#060606;stroke-width:2.83969;stroke-miterlimit:4;stroke-dasharray:none;stroke-opacity:1"
         id="circle1517"
         cx="174.40009"
         cy="129.75409"
         r="5.7142859" />
    </g>
    <g
       id="g1624"
       transform="translate(99.054,-242.875)">
      <path
         style="opacity:1;fill:none;fill-opacity:1;stroke:#000000;stroke-width:2;stroke-miterlimit:4;stroke-dasharray:none;stroke-opacity:1"
         id="path1590"
         d="m 132.5,298.6875 a 5.75,6.3125 0 0 1 -4.09715,6.04608 5.75,6.3125 0 0 1 -6.45262,-2.57017"
         sodipodi:type="arc"
         sodipodi:arc-type="arc"
         sodipodi:open="true"
         sodipodi:start="0"
         sodipodi:end="2.5584627"
         sodipodi:ry="6.3125"
         sodipodi:rx="5.75"
         sodipodi:cy="298.6875"
         sodipodi:cx="126.75" />
      <path
         style="opacity:1;fill:none;fill-opacity:1;stroke:#000000;stroke-width:2;stroke-miterlimit:4;stroke-dasharray:none;stroke-opacity:1"
         id="path1594"
         d="m 124.56969,308.25505 a 5.75,6.3125 0 0 1 -7.32917,0.97456 5.75,6.3125 0 0 1 -2.16186,-7.74968"
         sodipodi:type="arc"
         sodipodi:arc-type="arc"
         sodipodi:start="0.75318852"
         sodipodi:end="3.5414843"
         sodipodi:ry="6.3125"
         sodipodi:rx="5.75"
         sodipodi:cy="303.9375"
         sodipodi:cx="120.375"
         sodipodi:open="true" />
      <path
         style="opacity:1;fill:none;fill-opacity:1;stroke:#000000;stroke-width:2;stroke-miterlimit:4;stroke-dasharray:none;stroke-opacity:1"
         id="path1598"
         sodipodi:type="arc"
         sodipodi:cx="21.017036"
         sodipodi:cy="321.88016"
         sodipodi:rx="7.75"
         sodipodi:ry="5.5"
         sodipodi:start="3.5295423"
         sodipodi:end="6.0766872"
         sodipodi:arc-type="arc"
         d="m 13.842965,319.79956 a 7.75,5.5 0 0 1 7.876232,-3.39678 7.75,5.5 0 0 1 6.88319,4.34969"
         transform="rotate(-17.811371)"
         sodipodi:open="true" />
      <circle
         r="2.0122948"
         cy="309.10483"
         cx="129.91183"
         id="circle1609"
         style="fill:#ffffff;fill-opacity:1;stroke:#000000;stroke-width:1.33097;stroke-miterlimit:4;stroke-dasharray:none;stroke-opacity:1" />
      <circle
         r="2.0122948"
         cy="299.47983"
         cx="118.16183"
         id="circle1611"
         style="fill:#ffffff;fill-opacity:1;stroke:#000000;stroke-width:1.33097;stroke-miterlimit:4;stroke-dasharray:none;stroke-opacity:1" />
      <circle
         r="2.0122948"
         cy="308.35483"
         cx="110.78683"
         id="circle1613"
         style="fill:#ffffff;fill-opacity:1;stroke:#000000;stroke-width:1.33097;stroke-miterlimit:4;stroke-dasharray:none;stroke-opacity:1" />
      <circle
         r="2.0122948"
         cy="296.10483"
         cx="129.16183"
         id="circle1615"
         style="fill:#ffffff;fill-opacity:1;stroke:#000000;stroke-width:1.33097;stroke-miterlimit:4;stroke-dasharray:none;stroke-opacity:1" />
    </g>
    <g
       id="g23808">
      <path
         style="fill:#ffffff;fill-opacity:1;stroke:#000000;stroke-width:2;stroke-linecap:butt;stroke-linejoin:miter;stroke-miterlimit:4;stroke-dasharray:none;stroke-opacity:1"
         d="m 20.25801,180.67352 h 6.49743 v -6.74406 l -3.03912,-3.03912 -3.38845,3.38845 v 5.90567"
         id="path1653"
         sodipodi:nodetypes="cccccc" />
      <path
         style="fill:#ffffff;fill-opacity:1;stroke:#000000;stroke-width:2;stroke-linecap:butt;stroke-linejoin:miter;stroke-miterlimit:4;stroke-dasharray:none;stroke-opacity:1"
         d="m 13.00801,182.79852 h 6.49743 v -10.86906 l -3.03912,-3.03912 -3.38845,3.38845 v 10.03067"
         id="path1643"
         sodipodi:nodetypes="cccccc" />
      <path
         style="fill:#ffffff;fill-opacity:1;stroke:#000000;stroke-width:2;stroke-linecap:butt;stroke-linejoin:miter;stroke-miterlimit:4;stroke-dasharray:none;stroke-opacity:1"
         d="m 16.75801,182.67352 h 9.37243 v -2.99406 l -9.30257,-4.65067 v 7.15567"
         id="path1649"
         sodipodi:nodetypes="ccccc" />
      <path
         style="fill:#ffffff;fill-opacity:1;stroke:#000000;stroke-width:2;stroke-linecap:butt;stroke-linejoin:miter;stroke-miterlimit:4;stroke-dasharray:none;stroke-opacity:1"
         d="m 23.75801,184.17352 h 6.49743 v -4.49406 l -3.03912,-3.03912 -3.38845,3.38845 v 3.65567"
         id="path1647"
         sodipodi:nodetypes="cccccc" />
      <path
         style="fill:#ffffff;fill-opacity:1;stroke:#000000;stroke-width:2;stroke-linecap:butt;stroke-linejoin:miter;stroke-miterlimit:4;stroke-dasharray:none;stroke-opacity:1"
         d="m 16.50801,187.67352 h 6.49743 v -4.49406 l -3.03912,-3.03912 -3.38845,3.38845 v 3.65567"
         id="path1645"
         sodipodi:nodetypes="cccccc" />
      <path
         style="fill:#ffffff;fill-opacity:1;stroke:#000000;stroke-width:2;stroke-linecap:butt;stroke-linejoin:miter;stroke-miterlimit:4;stroke-dasharray:none;stroke-opacity:1"
         d="m 9.88301,189.04852 h 6.49743 v -7.36906 l -3.03912,-3.03912 -3.38845,3.38845 v 6.53067"
         id="path1639"
         sodipodi:nodetypes="cccccc" />
      <path
         style="fill:#ffffff;fill-opacity:1;stroke:#000000;stroke-width:2;stroke-linecap:butt;stroke-linejoin:miter;stroke-miterlimit:4;stroke-dasharray:none;stroke-opacity:1"
         d="m 22.50801,189.67352 h 6.49743 v -4.49406 l -3.03912,-3.03912 -3.38845,3.38845 v 3.65567"
         id="path1651"
         sodipodi:nodetypes="cccccc" />
    </g>
    <path
       style="fill:none;stroke:#000000;stroke-width:5;stroke-linecap:round;stroke-linejoin:miter;stroke-miterlimit:4;stroke-dasharray:none;stroke-opacity:1"
       d="m 204.13251,260.6835 c 9.99582,-2.25045 10.6121,-0.4799 15.78222,-0.7562"
       id="path1676"
       sodipodi:nodetypes="cc"
       clip-path="url(#clipPath14038)" />
    <path
       style="fill:none;stroke:#000000;stroke-width:5;stroke-linecap:round;stroke-linejoin:miter;stroke-miterlimit:4;stroke-dasharray:none;stroke-opacity:1"
       d="m 11.34642,246.78647 c 4.710609,10.73842 5.918284,8.92361 8.745085,12.96405"
       id="path1678"
       sodipodi:nodetypes="cc"
       clip-path="url(#clipPath14018)" />
    <path
       style="fill:none;stroke:#000000;stroke-width:5;stroke-linecap:round;stroke-linejoin:miter;stroke-miterlimit:4;stroke-dasharray:none;stroke-opacity:1"
       d="m 67.877262,246.30033 c -4.846748,5.19285 -4.963131,9.03252 -7.520592,13.53858"
       id="path1680"
       sodipodi:nodetypes="cc"
       clip-path="url(#clipPath14022)" />
    <path
       style="fill:none;stroke:#000000;stroke-width:5;stroke-linecap:round;stroke-linejoin:miter;stroke-miterlimit:4;stroke-dasharray:none;stroke-opacity:1"
       d="m 115.86725,260.51856 c -5.55283,1.46952 -10.39015,-0.33117 -15.51058,-0.59126"
       id="path1682"
       sodipodi:nodetypes="cc"
       clip-path="url(#clipPath14026)" />
    <path
       style="fill:none;stroke:#000000;stroke-width:5;stroke-linecap:round;stroke-linejoin:miter;stroke-miterlimit:4;stroke-dasharray:none;stroke-opacity:1"
       d="m 147.75004,273.68463 c -1.74705,-5.97301 -4.98731,-9.24694 -7.57015,-13.75733"
       id="path1684"
       sodipodi:nodetypes="cc"
       clip-path="url(#clipPath14030)" />
    <path
       style="fill:none;stroke:#000000;stroke-width:5;stroke-linecap:round;stroke-linejoin:miter;stroke-miterlimit:4;stroke-dasharray:none;stroke-opacity:1"
       d="m 171.54908,273.51322 c 8.13759,-7.46662 5.62517,-9.15471 8.63081,-13.49753"
       id="path1686"
       sodipodi:nodetypes="cc"
       clip-path="url(#clipPath14034)" />
    <path
       sodipodi:type="star"
       style="fill:none;fill-opacity:1;stroke:#ffffff;stroke-width:2.5;stroke-miterlimit:4;stroke-dasharray:none;stroke-opacity:1"
       id="path1688"
       sodipodi:sides="6"
       sodipodi:cx="19.999512"
       sodipodi:cy="20"
       sodipodi:r1="17.043451"
       sodipodi:r2="14.760061"
       sodipodi:arg1="-1.5707963"
       sodipodi:arg2="-1.0471976"
       inkscape:flatsided="true"
       inkscape:rounded="0.125"
       inkscape:randomized="0"
       d="m 19.999512,2.9565487 c 2.130432,0 13.694846,6.6767183 14.760062,8.5217263 1.065215,1.845007 1.065215,15.198443 -10e-7,17.043451 -1.065215,1.845008 -12.62963,8.521725 -14.760062,8.521725 -2.130431,0 -13.6948457,-6.676718 -14.7600613,-8.521726 C 4.174234,26.676718 4.1742344,13.323282 5.2394501,11.478274 6.3046659,9.6332663 17.869081,2.9565486 19.999512,2.9565487 Z" />
    <path
       style="fill:none;stroke:#3f95c0;stroke-width:1.69556;stroke-linecap:butt;stroke-linejoin:miter;stroke-miterlimit:4;stroke-dasharray:none;stroke-opacity:1"
       d="m 15.586153,104.2907 c 0.829702,-1.51909 2.299644,-2.67483 3.97161,-3.12267 1.671966,-0.44785 3.522797,-0.1816 5.000727,0.71938 0.704796,0.42966 1.318738,0.98996 1.949384,1.52252 0.630646,0.53257 1.29298,1.0469 2.056126,1.36146 1.092065,0.45014 2.360647,0.45383 3.455309,0.01 1.094663,-0.44378 2.002542,-1.32982 2.472841,-2.41336"
       id="path1705"
       inkscape:connector-curvature="0"
       inkscape:path-effect="#path-effect1707"
       inkscape:original-d="m 15.586153,104.2907 c 3.89914,-3.41847 4.967277,1.01426 8.972337,-2.40329 4.00506,-3.41757 1.2288,-0.3209 4.00551,2.88398 2.7767,3.20483 3.09804,0.31997 5.92815,-2.40332"
       sodipodi:nodetypes="cccc" />
    <path
       style="fill:none;stroke:#3f95c0;stroke-width:1.69556;stroke-linecap:butt;stroke-linejoin:miter;stroke-miterlimit:4;stroke-dasharray:none;stroke-opacity:1"
       d="m 7.322064,109.51037 c 0.8297019,-1.51909 2.2996447,-2.67483 3.971611,-3.12268 1.671967,-0.44784 3.522799,-0.18159 5.000729,0.71939 0.704795,0.42966 1.318737,0.98996 1.949382,1.52252 0.630645,0.53257 1.292978,1.0469 2.056124,1.36146 1.092064,0.45014 2.360647,0.45383 3.45531,0.01 1.094663,-0.44378 2.002541,-1.32982 2.47284,-2.41336"
       id="path1713"
       inkscape:connector-curvature="0"
       inkscape:path-effect="#path-effect1715"
       inkscape:original-d="m 7.322064,109.51037 c 3.89914,-3.41847 4.96728,1.01426 8.97234,-2.40329 4.005056,-3.41757 1.2288,-0.3209 4.005506,2.88398 2.7767,3.20483 3.09804,0.31997 5.92815,-2.40332"
       sodipodi:nodetypes="cccc" />
    <path
       style="fill:none;stroke:#3f95c0;stroke-width:1.69556;stroke-linecap:butt;stroke-linejoin:miter;stroke-miterlimit:4;stroke-dasharray:none;stroke-opacity:1"
       d="m 13.591358,91.14211 c 0.829703,-1.519089 2.299646,-2.67483 3.971613,-3.122675 1.671967,-0.447846 3.522798,-0.181592 5.000729,0.719385 0.704795,0.429658 1.318738,0.989955 1.949384,1.522523 0.630645,0.532568 1.29298,1.046893 2.056126,1.361457 1.092065,0.450141 2.360646,0.453829 3.455309,0.01004 1.094663,-0.443785 2.002542,-1.329827 2.472841,-2.413363"
       id="path1717"
       inkscape:connector-curvature="0"
       inkscape:path-effect="#path-effect1719"
       inkscape:original-d="m 13.591358,91.14211 c 3.89914,-3.41847 4.96728,1.01426 8.972342,-2.40329 4.00506,-3.41757 1.2288,-0.3209 4.00551,2.88398 2.7767,3.20483 3.09804,0.31997 5.92815,-2.40332"
       sodipodi:nodetypes="cccc" />
    <path
       style="fill:none;stroke:#3f95c0;stroke-width:1.69556;stroke-linecap:butt;stroke-linejoin:miter;stroke-miterlimit:4;stroke-dasharray:none;stroke-opacity:1"
       d="m 5.220037,96.23677 c 0.8297026,-1.519089 2.2996454,-2.674829 3.9716118,-3.122675 1.6719662,-0.447845 3.5227982,-0.181592 5.0007282,0.719385 0.704796,0.429658 1.318738,0.989955 1.949384,1.522523 0.630646,0.532568 1.29298,1.046893 2.056126,1.361457 1.092065,0.450142 2.360647,0.453829 3.455311,0.01004 1.094663,-0.443785 2.002542,-1.329827 2.472842,-2.413364"
       id="path1721"
       inkscape:connector-curvature="0"
       inkscape:path-effect="#path-effect1723"
       inkscape:original-d="m 5.220037,96.23677 c 3.89914,-3.41847 4.96728,1.01426 8.97234,-2.40329 4.00506,-3.41757 1.2288,-0.3209 4.00551,2.88398 2.776703,3.20483 3.098043,0.31997 5.928153,-2.40332"
       sodipodi:nodetypes="cccc" />
    <text
       id="text940"
       y="231.01192"
       x="131.918"
       style="font-style:normal;font-weight:normal;font-size:17.4396px;line-height:1.25;font-family:sans-serif;letter-spacing:0px;word-spacing:0px;fill:#ffffff;fill-opacity:1;stroke:#000000;stroke-width:1.5;stroke-miterlimit:4;stroke-dasharray:none;stroke-opacity:1"
       xml:space="preserve"><tspan
         style="font-style:normal;font-variant:normal;font-weight:bold;font-stretch:normal;font-size:32px;font-family:Ubuntu;-inkscape-font-specification:'Ubuntu Bold';fill:#ffffff;fill-opacity:1;stroke:#000000;stroke-width:1.5;stroke-miterlimit:4;stroke-dasharray:none;stroke-opacity:1"
         y="231.01192"
         x="131.918"
         id="tspan938"
         sodipodi:role="line">3</tspan></text>
    <text
       id="text928"
       y="231.15991"
       x="250.31601"
       style="font-style:normal;font-weight:normal;font-size:17.4396px;line-height:1.25;font-family:sans-serif;letter-spacing:0px;word-spacing:0px;fill:#ffffff;fill-opacity:1;stroke:#000000;stroke-width:1.5;stroke-miterlimit:4;stroke-dasharray:none;stroke-opacity:1"
       xml:space="preserve"><tspan
         style="font-style:normal;font-variant:normal;font-weight:bold;font-stretch:normal;font-size:32px;font-family:Ubuntu;-inkscape-font-specification:'Ubuntu Bold';fill:#ffffff;fill-opacity:1;stroke:#000000;stroke-width:1.5;stroke-miterlimit:4;stroke-dasharray:none;stroke-opacity:1"
         y="231.15991"
         x="250.31601"
         id="tspan926"
         sodipodi:role="line">6</tspan></text>
    <text
       id="text932"
       y="230.99991"
       x="211.034"
       style="font-style:normal;font-weight:normal;font-size:17.4396px;line-height:1.25;font-family:sans-serif;letter-spacing:0px;word-spacing:0px;fill:#ffffff;fill-opacity:1;stroke:#000000;stroke-width:1.5;stroke-miterlimit:4;stroke-dasharray:none;stroke-opacity:1"
       xml:space="preserve"><tspan
         style="font-style:normal;font-variant:normal;font-weight:bold;font-stretch:normal;font-size:32px;font-family:Ubuntu;-inkscape-font-specification:'Ubuntu Bold';fill:#ffffff;fill-opacity:1;stroke:#000000;stroke-width:1.5;stroke-miterlimit:4;stroke-dasharray:none;stroke-opacity:1"
         y="230.99991"
         x="211.034"
         id="tspan930"
         sodipodi:role="line">5</tspan></text>
    <text
       id="text936"
       y="230.99991"
       x="170.11"
       style="font-style:normal;font-weight:normal;font-size:17.4396px;line-height:1.25;font-family:sans-serif;letter-spacing:0px;word-spacing:0px;fill:#ffffff;fill-opacity:1;stroke:#000000;stroke-width:1.5;stroke-miterlimit:4;stroke-dasharray:none;stroke-opacity:1"
       xml:space="preserve"><tspan
         style="font-style:normal;font-variant:normal;font-weight:bold;font-stretch:normal;font-size:32px;font-family:Ubuntu;-inkscape-font-specification:'Ubuntu Bold';fill:#ffffff;fill-opacity:1;stroke:#000000;stroke-width:1.5;stroke-miterlimit:4;stroke-dasharray:none;stroke-opacity:1"
         y="230.99991"
         x="170.11"
         id="tspan934"
         sodipodi:role="line">4</tspan></text>
    <text
       id="text944"
       y="231.01192"
       x="91.130005"
       style="font-style:normal;font-weight:normal;font-size:17.4396px;line-height:1.25;font-family:sans-serif;letter-spacing:0px;word-spacing:0px;fill:#ffffff;fill-opacity:1;stroke:#000000;stroke-width:1.5;stroke-miterlimit:4;stroke-dasharray:none;stroke-opacity:1"
       xml:space="preserve"><tspan
         style="font-style:normal;font-variant:normal;font-weight:bold;font-stretch:normal;font-size:32px;font-family:Ubuntu;-inkscape-font-specification:'Ubuntu Bold';fill:#ffffff;fill-opacity:1;stroke:#000000;stroke-width:1.5;stroke-miterlimit:4;stroke-dasharray:none;stroke-opacity:1"
         y="231.01192"
         x="91.130005"
         id="tspan942"
         sodipodi:role="line">2</tspan></text>
    <text
       id="text948"
       y="230.99991"
       x="50.262917"
       style="font-style:normal;font-weight:normal;font-size:17.4396px;line-height:1.25;font-family:sans-serif;letter-spacing:0px;word-spacing:0px;fill:#ffffff;fill-opacity:1;stroke:#000000;stroke-width:1.5;stroke-miterlimit:4;stroke-dasharray:none;stroke-opacity:1"
       xml:space="preserve"><tspan
         style="font-style:normal;font-variant:normal;font-weight:bold;font-stretch:normal;font-size:32px;font-family:Ubuntu;-inkscape-font-specification:'Ubuntu Bold';fill:#ffffff;fill-opacity:1;stroke:#000000;stroke-width:1.5;stroke-miterlimit:4;stroke-dasharray:none;stroke-opacity:1"
         y="230.99991"
         x="50.262917"
         id="tspan946"
         sodipodi:role="line">1</tspan></text>
    <text
       id="text1071"
       y="231.15991"
       x="290.87399"
       style="font-style:normal;font-weight:normal;font-size:17.4396px;line-height:1.25;font-family:sans-serif;letter-spacing:0px;word-spacing:0px;fill:#ffffff;fill-opacity:1;stroke:#000000;stroke-width:1.5;stroke-miterlimit:4;stroke-dasharray:none;stroke-opacity:1"
       xml:space="preserve"><tspan
         style="font-style:normal;font-variant:normal;font-weight:bold;font-stretch:normal;font-size:32px;font-family:Ubuntu;-inkscape-font-specification:'Ubuntu Bold';fill:#ffffff;fill-opacity:1;stroke:#000000;stroke-width:1.5;stroke-miterlimit:4;stroke-dasharray:none;stroke-opacity:1"
         y="231.15991"
         x="290.87399"
         id="tspan1069"
         sodipodi:role="line">7</tspan></text>
    <path
       sodipodi:type="star"
       style="fill:none;stroke:#ffffff;stroke-width:2.36977;stroke-miterlimit:4;stroke-dasharray:none;stroke-opacity:1"
       id="path13826"
       inkscape:flatsided="true"
       sodipodi:sides="4"
       sodipodi:cx="-144.95689"
       sodipodi:cy="86.267021"
       sodipodi:r1="19.726925"
       sodipodi:r2="13.949041"
       sodipodi:arg1="-0.78539816"
       sodipodi:arg2="0"
       inkscape:rounded="0.125"
       inkscape:randomized="0"
       d="m -131.00785,72.317979 c 2.46586,2.465865 2.46586,25.432219 0,27.898081 -2.46587,2.46587 -25.43222,2.46587 -27.89809,0 -2.46586,-2.465862 -2.46586,-25.432216 0,-27.898081 2.46587,-2.465866 25.43222,-2.465866 27.89809,0 z"
       transform="matrix(1.0549564,0,0,1.0549564,172.92287,-31.007949)" />
    <path
       style="fill:none;stroke:#000000;stroke-width:5;stroke-linecap:round;stroke-linejoin:miter;stroke-miterlimit:4;stroke-dasharray:none;stroke-opacity:1"
       d="m 19.6,300.05 c 1.918959,-6.12239 -0.877339,-11.21516 0.25,-21.25"
       id="path14075"
       sodipodi:nodetypes="cc"
       clip-path="url(#clipPath18557)" />
    <path
       style="fill:none;stroke:#000000;stroke-width:5;stroke-linecap:round;stroke-linejoin:miter;stroke-miterlimit:4;stroke-dasharray:none;stroke-opacity:1"
       d="m 59.7,300.1 c 6.206974,1.64488 11.883524,-0.48119 18.45,0.35"
       id="path17567"
       sodipodi:nodetypes="cc"
       clip-path="url(#clipPath18561)" />
    <path
       style="fill:none;stroke:#000000;stroke-width:5;stroke-linecap:round;stroke-linejoin:miter;stroke-miterlimit:4;stroke-dasharray:none;stroke-opacity:1"
       d="m 99.6,300.1 c -3.183371,7.40457 0.76978,10.68032 0.1,19.5"
       id="path17577"
       sodipodi:nodetypes="cc"
       clip-path="url(#clipPath18565)" />
    <path
       style="fill:none;stroke:#000000;stroke-width:5;stroke-linecap:round;stroke-linejoin:miter;stroke-miterlimit:4;stroke-dasharray:none;stroke-opacity:1"
       d="m 139.4,300 c -11.03057,-1.47193 -11.55242,1.30126 -22.45,0"
       id="path17587"
       sodipodi:nodetypes="cc"
       clip-path="url(#clipPath18569)" />
    <g
       id="g23570"
       transform="translate(0,160)">
      <path
         style="fill:#ffffff;fill-opacity:1;stroke:#000000;stroke-width:2;stroke-linecap:butt;stroke-linejoin:miter;stroke-miterlimit:4;stroke-dasharray:none;stroke-opacity:1"
         d="m 54.867352,32.26379 h 10.555636 c 0,0 -2.02989,-7.91818 2.207627,-11.78722 4.237517,-3.86904 2.774774,-9.05394 2.774774,-9.05394 0,0 -5.192244,7.18727 -10.5352,7.18727 -5.342957,0 -10.133193,-7.04582 -10.133193,-7.04582 0,0 -0.93193,5.95546 2.51422,8.9441 4.499989,3.90257 2.616136,11.75561 2.616136,11.75561 z"
         id="path23566"
         sodipodi:nodetypes="ccscscsc" />
      <path
         style="fill:#ffffff;fill-opacity:1;stroke:#000000;stroke-width:2;stroke-linecap:butt;stroke-linejoin:miter;stroke-miterlimit:4;stroke-dasharray:none;stroke-opacity:1"
         d="M 60,8.7999999 C 58.157801,10.33262 55.793364,12.00226 55.6,15.6 c 0.120935,3.00251 1.658984,4.85256 4.4,6.6 2.755283,-1.60683 4.8033,-3.79802 4.5,-7.7 C 64.227694,11.96359 62.57204,10.66977 60,8.7999999 Z"
         id="path23568"
         sodipodi:nodetypes="ccccc" />
    </g>
  </g>
</svg>
