<?xml version="1.0" encoding="UTF-8" standalone="no"?>
<!-- Created with Inkscape (http://www.inkscape.org/) -->

<svg
   width="40"
   height="320"
   viewBox="0 0 40 320"
   version="1.1"
   id="svg479"
   inkscape:version="1.2.1 (9c6d41e410, 2022-07-14)"
   sodipodi:docname="tiles6.svg"
   xmlns:inkscape="http://www.inkscape.org/namespaces/inkscape"
   xmlns:sodipodi="http://sodipodi.sourceforge.net/DTD/sodipodi-0.dtd"
   xmlns="http://www.w3.org/2000/svg"
   xmlns:svg="http://www.w3.org/2000/svg">
  <sodipodi:namedview
     id="namedview481"
     pagecolor="#ffffff"
     bordercolor="#666666"
     borderopacity="1.0"
     inkscape:showpageshadow="2"
     inkscape:pageopacity="0"
     inkscape:pagecheckerboard="true"
     inkscape:deskcolor="#d1d1d1"
     inkscape:document-units="px"
     showgrid="false"
     inkscape:zoom="10.067433"
     inkscape:cx="26.719821"
     inkscape:cy="257.51351"
     inkscape:window-width="2556"
     inkscape:window-height="1390"
     inkscape:window-x="0"
     inkscape:window-y="0"
     inkscape:window-maximized="1"
     inkscape:current-layer="layer1" />
  <defs
     id="defs476">
    <inkscape:path-effect
       effect="spiro"
       id="path-effect1707"
       is_visible="true"
       lpeversion="0" />
    <inkscape:path-effect
       effect="spiro"
       id="path-effect1715"
       is_visible="true"
       lpeversion="0" />
    <inkscape:path-effect
       effect="spiro"
       id="path-effect1719"
       is_visible="true"
       lpeversion="0" />
    <inkscape:path-effect
       effect="spiro"
       id="path-effect1723"
       is_visible="true"
       lpeversion="0" />
    <marker
       inkscape:stockid="Arrow2Send"
       orient="auto"
       refY="0"
       refX="0"
       id="Arrow2Send"
       style="overflow:visible"
       inkscape:isstock="true"
       inkscape:collect="always">
      <path
         id="path935"
         style="fill:#000000;fill-opacity:1;fill-rule:evenodd;stroke:#000000;stroke-width:0.625;stroke-linejoin:round;stroke-opacity:1"
         d="M 8.7185878,4.0337352 -2.2072895,0.01601326 8.7185884,-4.0017078 c -1.7454984,2.3720609 -1.7354408,5.6174519 -6e-7,8.035443 z"
         transform="matrix(-0.3,0,0,-0.3,0.69,0)" />
    </marker>
    <marker
       inkscape:stockid="Arrow2Sstart"
       orient="auto"
       refY="0"
       refX="0"
       id="Arrow2Sstart"
       style="overflow:visible"
       inkscape:isstock="true"
       inkscape:collect="always">
      <path
         id="path932"
         style="fill:#000000;fill-opacity:1;fill-rule:evenodd;stroke:#000000;stroke-width:0.625;stroke-linejoin:round;stroke-opacity:1"
         d="M 8.7185878,4.0337352 -2.2072895,0.01601326 8.7185884,-4.0017078 c -1.7454984,2.3720609 -1.7354408,5.6174519 -6e-7,8.035443 z"
         transform="matrix(0.3,0,0,0.3,-0.69,0)" />
    </marker>
    <marker
       inkscape:isstock="true"
       style="overflow:visible"
       id="marker1246"
       refX="0"
       refY="0"
       orient="auto"
       inkscape:stockid="Arrow2Send">
      <path
         transform="matrix(-0.3,0,0,-0.3,0.69,0)"
         d="M 8.7185878,4.0337352 -2.2072895,0.01601326 8.7185884,-4.0017078 c -1.7454984,2.3720609 -1.7354408,5.6174519 -6e-7,8.035443 z"
         style="fill:#000000;fill-opacity:1;fill-rule:evenodd;stroke:#000000;stroke-width:0.625;stroke-linejoin:round;stroke-opacity:1"
         id="path1244" />
    </marker>
    <marker
       inkscape:isstock="true"
       style="overflow:visible"
       id="marker1450"
       refX="0"
       refY="0"
       orient="auto"
       inkscape:stockid="Arrow2Sstart">
      <path
         transform="matrix(0.3,0,0,0.3,-0.69,0)"
         d="M 8.7185878,4.0337352 -2.2072895,0.01601326 8.7185884,-4.0017078 c -1.7454984,2.3720609 -1.7354408,5.6174519 -6e-7,8.035443 z"
         style="fill:#000000;fill-opacity:1;fill-rule:evenodd;stroke:#000000;stroke-width:0.625;stroke-linejoin:round;stroke-opacity:1"
         id="path1448" />
    </marker>
  </defs>
  <g
     inkscape:label="Layer 1"
     inkscape:groupmode="layer"
     id="layer1">
    <g
       id="g2953">
      <path
         sodipodi:type="star"
         style="fill:#ffffff;fill-opacity:1;stroke:none;stroke-width:4.21728"
         id="path837-3"
         sodipodi:sides="6"
         sodipodi:cx="59.999508"
         sodipodi:cy="20"
         sodipodi:r1="17.565153"
         sodipodi:r2="15.211868"
         sodipodi:arg1="-1.5707963"
         sodipodi:arg2="-1.0471976"
         inkscape:flatsided="true"
         inkscape:rounded="0.125"
         inkscape:randomized="0"
         d="m 59.999508,2.4348469 c 2.195645,0 14.114047,6.8810933 15.211869,8.7825771 1.097822,1.901483 1.097822,15.663669 -10e-7,17.565153 -1.097822,1.901484 -13.016224,8.782576 -15.211869,8.782576 -2.195644,0 -14.114046,-6.881093 -15.211868,-8.782577 -1.097822,-1.901483 -1.097822,-15.663669 0,-17.565153 1.097822,-1.9014835 13.016225,-8.7825762 15.211869,-8.7825761 z"
         transform="matrix(0.99780263,0,0,1.0247562,-39.867667,79.504876)" />
    </g>
    <g
       id="g2959"
       transform="matrix(0.96969693,0,0,1,0.60606074,40)">
      <path
         sodipodi:type="star"
         style="fill:#ffffff;fill-opacity:1;stroke:none;stroke-width:4.21728"
         id="path2957"
         sodipodi:sides="6"
         sodipodi:cx="59.999508"
         sodipodi:cy="20"
         sodipodi:r1="17.565153"
         sodipodi:r2="15.211868"
         sodipodi:arg1="-1.5707963"
         sodipodi:arg2="-1.0471976"
         inkscape:flatsided="true"
         inkscape:rounded="0.125"
         inkscape:randomized="0"
         d="m 59.999508,2.4348469 c 2.195645,0 14.114047,6.8810933 15.211869,8.7825771 1.097822,1.901483 1.097822,15.663669 -10e-7,17.565153 -1.097822,1.901484 -13.016224,8.782576 -15.211869,8.782576 -2.195644,0 -14.114046,-6.881093 -15.211868,-8.782577 -1.097822,-1.901483 -1.097822,-15.663669 0,-17.565153 1.097822,-1.9014835 13.016225,-8.7825762 15.211869,-8.7825761 z"
         transform="matrix(1.028984,0,0,1.0247562,-41.738533,79.504876)" />
    </g>
    <g
       id="g2965"
       transform="matrix(0.96969693,0,0,1,0.60606074,80)">
      <path
         sodipodi:type="star"
         style="fill:#ffffff;fill-opacity:1;stroke:none;stroke-width:4.21728"
         id="path2963"
         sodipodi:sides="6"
         sodipodi:cx="59.999508"
         sodipodi:cy="20"
         sodipodi:r1="17.565153"
         sodipodi:r2="15.211868"
         sodipodi:arg1="-1.5707963"
         sodipodi:arg2="-1.0471976"
         inkscape:flatsided="true"
         inkscape:rounded="0.125"
         inkscape:randomized="0"
         d="m 59.999508,2.4348469 c 2.195645,0 14.114047,6.8810933 15.211869,8.7825771 1.097822,1.901483 1.097822,15.663669 -10e-7,17.565153 -1.097822,1.901484 -13.016224,8.782576 -15.211869,8.782576 -2.195644,0 -14.114046,-6.881093 -15.211868,-8.782577 -1.097822,-1.901483 -1.097822,-15.663669 0,-17.565153 1.097822,-1.9014835 13.016225,-8.7825762 15.211869,-8.7825761 z"
         transform="matrix(1.028984,0,0,1.0247562,-41.738533,79.504876)" />
    </g>
    <g
       id="g2971"
       transform="matrix(0.96969693,0,0,1,0.60606074,120)">
      <path
         sodipodi:type="star"
         style="fill:#ffffff;fill-opacity:1;stroke:none;stroke-width:4.21728"
         id="path2969"
         sodipodi:sides="6"
         sodipodi:cx="59.999508"
         sodipodi:cy="20"
         sodipodi:r1="17.565153"
         sodipodi:r2="15.211868"
         sodipodi:arg1="-1.5707963"
         sodipodi:arg2="-1.0471976"
         inkscape:flatsided="true"
         inkscape:rounded="0.125"
         inkscape:randomized="0"
         d="m 59.999508,2.4348469 c 2.195645,0 14.114047,6.8810933 15.211869,8.7825771 1.097822,1.901483 1.097822,15.663669 -10e-7,17.565153 -1.097822,1.901484 -13.016224,8.782576 -15.211869,8.782576 -2.195644,0 -14.114046,-6.881093 -15.211868,-8.782577 -1.097822,-1.901483 -1.097822,-15.663669 0,-17.565153 1.097822,-1.9014835 13.016225,-8.7825762 15.211869,-8.7825761 z"
         transform="matrix(1.028984,0,0,1.0247562,-41.738533,79.504876)" />
    </g>
    <g
       id="g2977"
       transform="matrix(0.96969693,0,0,1,0.60606074,160)">
      <path
         sodipodi:type="star"
         style="fill:#ffffff;fill-opacity:1;stroke:none;stroke-width:4.21728"
         id="path2975"
         sodipodi:sides="6"
         sodipodi:cx="59.999508"
         sodipodi:cy="20"
         sodipodi:r1="17.565153"
         sodipodi:r2="15.211868"
         sodipodi:arg1="-1.5707963"
         sodipodi:arg2="-1.0471976"
         inkscape:flatsided="true"
         inkscape:rounded="0.125"
         inkscape:randomized="0"
         d="m 59.999508,2.4348469 c 2.195645,0 14.114047,6.8810933 15.211869,8.7825771 1.097822,1.901483 1.097822,15.663669 -10e-7,17.565153 -1.097822,1.901484 -13.016224,8.782576 -15.211869,8.782576 -2.195644,0 -14.114046,-6.881093 -15.211868,-8.782577 -1.097822,-1.901483 -1.097822,-15.663669 0,-17.565153 1.097822,-1.9014835 13.016225,-8.7825762 15.211869,-8.7825761 z"
         transform="matrix(1.028984,0,0,1.0247562,-41.738533,79.504876)" />
    </g>
    <path
       sodipodi:type="star"
       style="fill:none;fill-opacity:1;stroke:#ffffff;stroke-width:2.5;stroke-miterlimit:4;stroke-dasharray:none;stroke-opacity:1"
       id="path1688"
       sodipodi:sides="6"
       sodipodi:cx="19.999512"
       sodipodi:cy="20"
       sodipodi:r1="17.043451"
       sodipodi:r2="14.760061"
       sodipodi:arg1="-1.5707963"
       sodipodi:arg2="-1.0471976"
       inkscape:flatsided="true"
       inkscape:rounded="0.125"
       inkscape:randomized="0"
       d="m 19.999512,2.9565487 c 2.130432,0 13.694846,6.6767183 14.760062,8.5217263 1.065215,1.845007 1.065215,15.198443 -10e-7,17.043451 -1.065215,1.845008 -12.62963,8.521725 -14.760062,8.521725 -2.130431,0 -13.6948457,-6.676718 -14.7600613,-8.521726 C 4.174234,26.676718 4.1742344,13.323282 5.2394501,11.478274 6.3046659,9.6332663 17.869081,2.9565486 19.999512,2.9565487 Z"
       transform="matrix(0.98168832,0,0,1.0112519,0.36622443,-0.22503703)" />
    <path
       style="fill:none;stroke:#3f95c0;stroke-width:2;stroke-linecap:butt;stroke-linejoin:miter;stroke-miterlimit:4;stroke-dasharray:none;stroke-opacity:1"
       d="m 15.586153,64.29069 c 0.829702,-1.519088 2.299644,-2.674829 3.97161,-3.122674 1.671966,-0.447846 3.522797,-0.181592 5.000727,0.719384 0.704796,0.429658 1.318738,0.989955 1.949384,1.522523 0.630646,0.532568 1.29298,1.046893 2.056126,1.361457 1.092065,0.450141 2.360647,0.453829 3.455309,0.01004 1.094663,-0.443786 2.002542,-1.329828 2.472841,-2.413364"
       id="path1705"
       inkscape:connector-curvature="0"
       inkscape:path-effect="#path-effect1707"
       inkscape:original-d="m 15.586153,64.29069 c 3.89914,-3.41847 4.967277,1.01426 8.972337,-2.40329 4.00506,-3.417571 1.2288,-0.3209 4.00551,2.88398 2.7767,3.20483 3.09804,0.31997 5.92815,-2.40332"
       sodipodi:nodetypes="cccc" />
    <path
       style="fill:none;stroke:#3f95c0;stroke-width:2;stroke-linecap:butt;stroke-linejoin:miter;stroke-miterlimit:4;stroke-dasharray:none;stroke-opacity:1"
       d="m 7.322064,69.51036 c 0.8297019,-1.519089 2.2996447,-2.674831 3.971611,-3.122676 1.671967,-0.447846 3.522799,-0.181592 5.000729,0.719386 0.704795,0.429658 1.318737,0.989955 1.949382,1.522523 0.630645,0.532568 1.292978,1.046893 2.056124,1.361457 1.092064,0.450142 2.360647,0.45383 3.45531,0.01004 1.094663,-0.443785 2.002541,-1.329827 2.47284,-2.413364"
       id="path1713"
       inkscape:connector-curvature="0"
       inkscape:path-effect="#path-effect1715"
       inkscape:original-d="m 7.322064,69.51036 c 3.89914,-3.41847 4.96728,1.01426 8.97234,-2.40329 4.005056,-3.41757 1.2288,-0.3209 4.005506,2.88398 2.7767,3.20483 3.09804,0.31997 5.92815,-2.40332"
       sodipodi:nodetypes="cccc" />
    <path
       style="fill:none;stroke:#3f95c0;stroke-width:2;stroke-linecap:butt;stroke-linejoin:miter;stroke-miterlimit:4;stroke-dasharray:none;stroke-opacity:1"
       d="m 13.591358,51.142099 c 0.829703,-1.519089 2.299646,-2.67483 3.971613,-3.122675 1.671967,-0.447846 3.522798,-0.181592 5.000729,0.719385 0.704795,0.429658 1.318738,0.989955 1.949384,1.522523 0.630645,0.532568 1.29298,1.046893 2.056126,1.361457 1.092065,0.450141 2.360646,0.453829 3.455309,0.01004 1.094663,-0.443785 2.002542,-1.329827 2.472841,-2.413363"
       id="path1717"
       inkscape:connector-curvature="0"
       inkscape:path-effect="#path-effect1719"
       inkscape:original-d="m 13.591358,51.142099 c 3.89914,-3.41847 4.96728,1.01426 8.972342,-2.40329 4.00506,-3.41757 1.2288,-0.3209 4.00551,2.88398 2.7767,3.20483 3.09804,0.31997 5.92815,-2.40332"
       sodipodi:nodetypes="cccc" />
    <path
       style="fill:none;stroke:#3f95c0;stroke-width:2;stroke-linecap:butt;stroke-linejoin:miter;stroke-miterlimit:4;stroke-dasharray:none;stroke-opacity:1"
       d="m 5.220037,56.236759 c 0.8297026,-1.519089 2.2996454,-2.674829 3.9716118,-3.122675 1.6719662,-0.447845 3.5227982,-0.181592 5.0007282,0.719385 0.704796,0.429658 1.318738,0.989955 1.949384,1.522523 0.630646,0.532568 1.29298,1.046893 2.056126,1.361457 1.092065,0.450142 2.360647,0.453829 3.455311,0.01004 1.094663,-0.443785 2.002542,-1.329827 2.472842,-2.413364"
       id="path1721"
       inkscape:connector-curvature="0"
       inkscape:path-effect="#path-effect1723"
       inkscape:original-d="m 5.220037,56.236759 c 3.89914,-3.41847 4.96728,1.01426 8.97234,-2.40329 4.00506,-3.41757 1.2288,-0.3209 4.00551,2.88398 2.776703,3.20483 3.098043,0.31997 5.928153,-2.40332"
       sodipodi:nodetypes="cccc" />
    <g
       id="g1375"
       style="opacity:0.333"
       transform="translate(2.679,160)">
      <rect
         style="fill:#000000;fill-opacity:1;stroke:none;stroke-width:2;stroke-miterlimit:4;stroke-dasharray:none;stroke-opacity:1"
         id="rect1339"
         width="22.273863"
         height="1.9445437"
         x="4.5710001"
         y="11"
         rx="5.4116001" />
      <rect
         style="fill:#000000;fill-opacity:1;stroke:none;stroke-width:2;stroke-miterlimit:4;stroke-dasharray:none;stroke-opacity:1"
         id="rect1341"
         width="22.273863"
         height="1.9445437"
         x="8.5710001"
         y="14.5"
         rx="5.4116001" />
      <rect
         style="fill:#000000;fill-opacity:1;stroke:none;stroke-width:2;stroke-miterlimit:4;stroke-dasharray:none;stroke-opacity:1"
         id="rect1343"
         width="22.273863"
         height="1.9445437"
         x="4.0710001"
         y="24.5"
         rx="5.4116001" />
      <rect
         style="fill:#000000;fill-opacity:1;stroke:none;stroke-width:2;stroke-miterlimit:4;stroke-dasharray:none;stroke-opacity:1"
         id="rect1345"
         width="22.273863"
         height="1.9445437"
         x="8.0710001"
         y="28.25"
         rx="5.4116001" />
      <rect
         style="fill:#000000;fill-opacity:1;stroke:none;stroke-width:2;stroke-miterlimit:4;stroke-dasharray:none;stroke-opacity:1"
         id="rect1347"
         width="22.273863"
         height="1.9445437"
         x="3.0710001"
         y="17.5"
         rx="5.4116001" />
      <rect
         style="fill:#000000;fill-opacity:1;stroke:none;stroke-width:2;stroke-miterlimit:4;stroke-dasharray:none;stroke-opacity:1"
         id="rect1349"
         width="22.273863"
         height="1.9445437"
         x="9.5710001"
         y="21"
         rx="5.4116001" />
    </g>
    <g
       id="g1426"
       transform="translate(2.4625,120.08174)">
      <path
         sodipodi:nodetypes="ccc"
         inkscape:connector-curvature="0"
         id="path878"
         d="m 21.071444,19.888636 4.078039,-4.344529 3.814533,13.031066"
         style="fill:none;fill-opacity:1;stroke:#000000;stroke-width:3;stroke-linecap:butt;stroke-linejoin:miter;stroke-miterlimit:4;stroke-dasharray:none;stroke-opacity:1" />
      <path
         sodipodi:nodetypes="ccc"
         inkscape:connector-curvature="0"
         id="path880"
         d="M 9.628405,29.845332 18.465447,9.754254 23.156478,25.063836"
         style="fill:none;fill-opacity:1;stroke:#000000;stroke-width:3;stroke-linecap:butt;stroke-linejoin:miter;stroke-miterlimit:4;stroke-dasharray:none;stroke-opacity:1" />
      <path
         sodipodi:nodetypes="ccc"
         inkscape:connector-curvature="0"
         id="path1419"
         d="M 15.91871,17.388636 10.965671,12.794107 5.7761378,25.450173"
         style="fill:none;fill-opacity:1;stroke:#000000;stroke-width:3;stroke-linecap:butt;stroke-linejoin:miter;stroke-miterlimit:4;stroke-dasharray:none;stroke-opacity:1" />
    </g>
    <path
       style="opacity:0.2;fill:#666666;fill-opacity:1;stroke:#999999;stroke-width:3;stroke-linecap:butt;stroke-linejoin:miter;stroke-miterlimit:4;stroke-dasharray:none;stroke-opacity:1"
       d="m 20.579071,231.71398 c 0,0 -1.105523,-4.85461 3.825127,-7.08765 4.85226,-2.19753 7.509375,1.66533 7.509375,1.66533 0,0 -1.59069,-5.669 -5.02008,-7.02916 -1.450395,-4.0607 4.759298,-8.37593 4.759298,-8.37593 0,0 -4.5363,4.16751 -9.381705,3.47726 -3.47679,-0.49531 -7.885275,-6.213 -7.885275,-6.213 0,0 4.963237,2.47312 0.814972,10.18453 -2.559112,4.75726 -7.1357847,1.99929 -7.1357847,1.99929 0,0 2.0731647,2.72693 6.9936297,5.47784 5.505623,3.07806 4.395435,8.43274 4.395435,8.43274 z"
       id="path1335"
       inkscape:connector-curvature="0"
       sodipodi:nodetypes="cscccscscccc" />
    <path
       style="opacity:0.2;fill:#666666;fill-opacity:1;stroke:#999999;stroke-width:3;stroke-linecap:butt;stroke-linejoin:miter;stroke-miterlimit:4;stroke-dasharray:none;stroke-opacity:1"
       d="m 20.579071,271.71398 c 0,0 -1.105523,-4.85461 3.825127,-7.08765 4.85226,-2.19753 7.509375,1.66533 7.509375,1.66533 0,0 -1.59069,-5.669 -5.02008,-7.02916 -1.450395,-4.0607 4.759298,-8.37593 4.759298,-8.37593 0,0 -4.5363,4.16751 -9.381705,3.47726 -3.47679,-0.49531 -7.885275,-6.213 -7.885275,-6.213 0,0 4.963237,2.47312 0.814972,10.18453 -2.559112,4.75726 -7.1357847,1.99929 -7.1357847,1.99929 0,0 2.0731647,2.72693 6.9936297,5.47784 5.505623,3.07806 4.395435,8.43274 4.395435,8.43274 z"
       id="path2882"
       inkscape:connector-curvature="0"
       sodipodi:nodetypes="cscccscscccc" />
    <g
       id="g1207"
       transform="matrix(0.8046024,0,0,0.8046024,33.91884,250.61849)"
       style="opacity:1">
      <path
         style="fill:none;stroke:#000000;stroke-width:1.6147;stroke-linecap:butt;stroke-linejoin:miter;stroke-miterlimit:4;stroke-dasharray:none;stroke-opacity:1;marker-start:url(#Arrow2Send);marker-end:url(#Arrow2Sstart)"
         d="m -26.331116,18.829038 16.087579,-6.868857"
         id="path898"
         inkscape:connector-curvature="0" />
      <path
         style="fill:none;stroke:#000000;stroke-width:1.6147;stroke-linecap:butt;stroke-linejoin:miter;stroke-miterlimit:4;stroke-dasharray:none;stroke-opacity:1;marker-start:url(#marker1246);marker-end:url(#marker1450)"
         d="m -25.427318,11.417916 15.7260587,8.495682"
         id="path900"
         inkscape:connector-curvature="0" />
      <path
         style="fill:#000000;fill-opacity:1;stroke:none;stroke-width:0;stroke-linecap:butt;stroke-linejoin:miter;stroke-miterlimit:4;stroke-dasharray:none;stroke-opacity:1"
         d="m -18.228967,10.875617 c 0,0 -8.338036,-5.5697957 -3.183613,-10.21130381 5.154423,-4.64150369 8.489642,-2.78490389 11.066855,1.19352411 2.5772098,3.9784282 -7.883242,9.0177797 -7.883242,9.0177797 z"
         id="path1704"
         inkscape:connector-curvature="0" />
    </g>
  </g>
</svg>
